<svg xmlns="http://www.w3.org/2000/svg" xmlns:xlink="http://www.w3.org/1999/xlink" width="1024" zoomAndPan="magnify" viewBox="0 0 768 576" height="768" preserveAspectRatio="xMidYMid meet" version="1.0"><defs><filter x="0%" y="0%" width="100%" height="100%" id="15cb14354e"><feColorMatrix values="0 0 0 0 1 0 0 0 0 1 0 0 0 0 1 0 0 0 1 0" color-interpolation-filters="sRGB"/></filter><g/><clipPath id="73b6236a02"><path d="M 328.726562 75.683594 L 358.726562 75.683594 L 358.726562 503.183594 L 328.726562 503.183594 Z M 328.726562 75.683594 " clip-rule="nonzero"/></clipPath><clipPath id="a7dc5f742d"><path d="M 0.046875 0 L 328.546875 0 L 328.546875 576 L 0.046875 576 Z M 0.046875 0 " clip-rule="nonzero"/></clipPath><clipPath id="1ec46a6bfd"><path d="M 391.5 74.625 L 747.441406 74.625 L 747.441406 75.375 L 391.5 75.375 Z M 391.5 74.625 " clip-rule="nonzero"/></clipPath><mask id="1671fa4f17"><g filter="url(#15cb14354e)"><rect x="-76.8" width="921.6" fill="#000000" y="-57.6" height="691.2" fill-opacity="0.2471"/></g></mask><clipPath id="f19f75eee7"><path d="M 0.5 0.625 L 356.441406 0.625 L 356.441406 1.375 L 0.5 1.375 Z M 0.5 0.625 " clip-rule="nonzero"/></clipPath><clipPath id="bbc247ec34"><rect x="0" width="357" y="0" height="2"/></clipPath><clipPath id="8aae6561b4"><path d="M 391.5 159.828125 L 747.441406 159.828125 L 747.441406 160.578125 L 391.5 160.578125 Z M 391.5 159.828125 " clip-rule="nonzero"/></clipPath><mask id="2e551bcaeb"><g filter="url(#15cb14354e)"><rect x="-76.8" width="921.6" fill="#000000" y="-57.6" height="691.2" fill-opacity="0.2471"/></g></mask><clipPath id="5c6dc21de4"><path d="M 0.5 0.828125 L 356.441406 0.828125 L 356.441406 1.578125 L 0.5 1.578125 Z M 0.5 0.828125 " clip-rule="nonzero"/></clipPath><clipPath id="350a6f580f"><rect x="0" width="357" y="0" height="2"/></clipPath><clipPath id="67c3296dc7"><path d="M 391.5 245.03125 L 747.441406 245.03125 L 747.441406 245.78125 L 391.5 245.78125 Z M 391.5 245.03125 " clip-rule="nonzero"/></clipPath><mask id="87384e63e1"><g filter="url(#15cb14354e)"><rect x="-76.8" width="921.6" fill="#000000" y="-57.6" height="691.2" fill-opacity="0.2471"/></g></mask><clipPath id="f0467034cf"><path d="M 0.5 0.03125 L 356.441406 0.03125 L 356.441406 0.78125 L 0.5 0.78125 Z M 0.5 0.03125 " clip-rule="nonzero"/></clipPath><clipPath id="2cb2b30900"><rect x="0" width="357" y="0" height="1"/></clipPath><clipPath id="6794b9c8c6"><path d="M 391.5 330.230469 L 747.441406 330.230469 L 747.441406 330.980469 L 391.5 330.980469 Z M 391.5 330.230469 " clip-rule="nonzero"/></clipPath><mask id="aa8be9ec45"><g filter="url(#15cb14354e)"><rect x="-76.8" width="921.6" fill="#000000" y="-57.6" height="691.2" fill-opacity="0.2471"/></g></mask><clipPath id="e77bd5eae4"><path d="M 0.5 0.230469 L 356.441406 0.230469 L 356.441406 0.980469 L 0.5 0.980469 Z M 0.5 0.230469 " clip-rule="nonzero"/></clipPath><clipPath id="ea70d5cc94"><rect x="0" width="357" y="0" height="1"/></clipPath><clipPath id="cc50edd749"><path d="M 391.5 415.433594 L 747.441406 415.433594 L 747.441406 416.183594 L 391.5 416.183594 Z M 391.5 415.433594 " clip-rule="nonzero"/></clipPath><mask id="e8e39362df"><g filter="url(#15cb14354e)"><rect x="-76.8" width="921.6" fill="#000000" y="-57.6" height="691.2" fill-opacity="0.2471"/></g></mask><clipPath id="b0570bb2ce"><path d="M 0.5 0.433594 L 356.441406 0.433594 L 356.441406 1.183594 L 0.5 1.183594 Z M 0.5 0.433594 " clip-rule="nonzero"/></clipPath><clipPath id="50aa09a264"><rect x="0" width="357" y="0" height="2"/></clipPath><clipPath id="26e9fccb1c"><path d="M 391.5 500.636719 L 747.441406 500.636719 L 747.441406 501.386719 L 391.5 501.386719 Z M 391.5 500.636719 " clip-rule="nonzero"/></clipPath><mask id="308dbe2568"><g filter="url(#15cb14354e)"><rect x="-76.8" width="921.6" fill="#000000" y="-57.6" height="691.2" fill-opacity="0.6"/></g></mask><clipPath id="9b956c8139"><path d="M 0.5 0.636719 L 356.441406 0.636719 L 356.441406 1.386719 L 0.5 1.386719 Z M 0.5 0.636719 " clip-rule="nonzero"/></clipPath><clipPath id="41411138f6"><rect x="0" width="357" y="0" height="2"/></clipPath><clipPath id="e1ce6f88cc"><path d="M 432.242188 345 L 527 345 L 527 359.941406 L 432.242188 359.941406 Z M 432.242188 345 " clip-rule="nonzero"/></clipPath><clipPath id="ce8148c094"><path d="M 439.742188 355.484375 C 439.742188 353.414062 438.0625 351.734375 435.992188 351.734375 C 433.921875 351.734375 432.242188 353.414062 432.242188 355.484375 C 432.242188 357.558594 433.921875 359.234375 435.992188 359.234375 C 438.0625 359.234375 439.742188 357.558594 439.742188 355.484375 M 435.835938 353.804688 C 434.90625 353.894531 434.226562 354.714844 434.3125 355.644531 C 434.398438 356.570312 435.222656 357.253906 436.148438 357.167969 L 525.136719 348.816406 C 526.0625 348.730469 526.746094 347.90625 526.65625 346.980469 C 526.570312 346.050781 525.746094 345.371094 524.820312 345.457031 L 435.835938 353.804688 " clip-rule="nonzero"/></clipPath><clipPath id="f760586711"><path d="M 521 324 L 615.992188 324 L 615.992188 350.941406 L 521 350.941406 Z M 521 324 " clip-rule="nonzero"/></clipPath><clipPath id="14521a5754"><path d="M 528.726562 347.136719 C 528.726562 345.066406 527.046875 343.386719 524.976562 343.386719 C 522.90625 343.386719 521.226562 345.066406 521.226562 347.136719 C 521.226562 349.207031 522.90625 350.886719 524.976562 350.886719 C 527.046875 350.886719 528.726562 349.207031 528.726562 347.136719 M 524.597656 345.492188 C 523.6875 345.703125 523.125 346.609375 523.332031 347.515625 C 523.542969 348.425781 524.449219 348.992188 525.359375 348.78125 L 614.34375 328.160156 C 615.25 327.949219 615.816406 327.042969 615.605469 326.136719 C 615.394531 325.230469 614.488281 324.664062 613.582031 324.875 L 524.597656 345.492188 " clip-rule="nonzero"/></clipPath><clipPath id="e95a1cf169"><path d="M 610 155.941406 L 706.742188 155.941406 L 706.742188 330.691406 L 610 330.691406 Z M 610 155.941406 " clip-rule="nonzero"/></clipPath><clipPath id="bf6e5c4c37"><path d="M 617.710938 326.515625 C 617.710938 324.445312 616.035156 322.765625 613.960938 322.765625 C 611.890625 322.765625 610.210938 324.445312 610.210938 326.515625 C 610.210938 328.589844 611.890625 330.265625 613.960938 330.265625 C 616.035156 330.265625 617.710938 328.589844 617.710938 326.515625 M 612.472656 325.722656 C 612.035156 326.546875 612.347656 327.566406 613.167969 328.007812 C 613.992188 328.445312 615.011719 328.132812 615.453125 327.3125 L 704.4375 160.484375 C 704.875 159.664062 704.566406 158.640625 703.742188 158.203125 C 702.917969 157.761719 701.898438 158.074219 701.460938 158.898438 L 612.472656 325.722656 M 706.699219 159.691406 C 706.699219 157.621094 705.019531 155.941406 702.949219 155.941406 C 700.878906 155.941406 699.199219 157.621094 699.199219 159.691406 C 699.199219 161.761719 700.878906 163.441406 702.949219 163.441406 C 705.019531 163.441406 706.699219 161.761719 706.699219 159.691406 " clip-rule="nonzero"/></clipPath></defs><g clip-path="url(#73b6236a02)"><path fill="#ff5722" d="M 129.746094 75.683594 L 557.246094 75.683594 L 557.246094 503.183594 L 129.746094 503.183594 Z M 129.746094 75.683594 " fill-opacity="1" fill-rule="nonzero"/></g><g clip-path="url(#a7dc5f742d)"><path fill="#faf9f0" d="M -142.484375 -18.433594 L 471.015625 -18.433594 L 471.015625 595.066406 L -142.484375 595.066406 Z M -142.484375 -18.433594 " fill-opacity="1" fill-rule="nonzero"/></g><g fill="#faf9f0" fill-opacity="1"><g transform="translate(421.66755, 517.84183)"><g><path d="M 0.515625 -0.859375 L 3.65625 -4.671875 C 3.769531 -4.796875 3.882812 -4.929688 4 -5.078125 C 4.113281 -5.222656 4.21875 -5.375 4.3125 -5.53125 C 4.414062 -5.695312 4.5 -5.863281 4.5625 -6.03125 C 4.632812 -6.207031 4.671875 -6.390625 4.671875 -6.578125 C 4.671875 -6.773438 4.628906 -6.957031 4.546875 -7.125 C 4.460938 -7.300781 4.351562 -7.453125 4.21875 -7.578125 C 4.082031 -7.710938 3.914062 -7.816406 3.71875 -7.890625 C 3.53125 -7.972656 3.328125 -8.015625 3.109375 -8.015625 C 2.898438 -8.015625 2.703125 -7.976562 2.515625 -7.90625 C 2.335938 -7.84375 2.175781 -7.75 2.03125 -7.625 C 1.894531 -7.5 1.785156 -7.34375 1.703125 -7.15625 C 1.617188 -6.96875 1.570312 -6.753906 1.5625 -6.515625 L 0.5 -6.515625 C 0.507812 -6.890625 0.582031 -7.234375 0.71875 -7.546875 C 0.863281 -7.859375 1.054688 -8.128906 1.296875 -8.359375 C 1.535156 -8.585938 1.8125 -8.765625 2.125 -8.890625 C 2.4375 -9.023438 2.765625 -9.09375 3.109375 -9.09375 C 3.515625 -9.09375 3.878906 -9.023438 4.203125 -8.890625 C 4.523438 -8.765625 4.800781 -8.585938 5.03125 -8.359375 C 5.269531 -8.140625 5.453125 -7.878906 5.578125 -7.578125 C 5.710938 -7.273438 5.78125 -6.941406 5.78125 -6.578125 C 5.78125 -6.441406 5.757812 -6.289062 5.71875 -6.125 C 5.6875 -5.96875 5.628906 -5.796875 5.546875 -5.609375 C 5.472656 -5.429688 5.367188 -5.238281 5.234375 -5.03125 C 5.097656 -4.820312 4.929688 -4.597656 4.734375 -4.359375 L 1.953125 -1.03125 L 5.765625 -1.03125 L 5.765625 0 L 0.515625 0 Z M 0.515625 -0.859375 "/></g></g></g><g fill="#faf9f0" fill-opacity="1"><g transform="translate(428.150628, 517.84183)"><g><path d="M 3.859375 0.109375 C 3.222656 0.109375 2.691406 -0.00390625 2.265625 -0.234375 C 1.835938 -0.472656 1.492188 -0.800781 1.234375 -1.21875 C 0.972656 -1.632812 0.785156 -2.117188 0.671875 -2.671875 C 0.566406 -3.222656 0.515625 -3.816406 0.515625 -4.453125 C 0.515625 -5.140625 0.585938 -5.773438 0.734375 -6.359375 C 0.890625 -6.953125 1.09375 -7.425781 1.34375 -7.78125 C 1.59375 -8.144531 1.910156 -8.453125 2.296875 -8.703125 C 2.679688 -8.953125 3.207031 -9.078125 3.875 -9.078125 C 4.507812 -9.078125 5.035156 -8.976562 5.453125 -8.78125 C 5.878906 -8.582031 6.226562 -8.273438 6.5 -7.859375 C 6.769531 -7.441406 6.957031 -6.941406 7.0625 -6.359375 C 7.175781 -5.773438 7.234375 -5.15625 7.234375 -4.5 C 7.234375 -3.851562 7.175781 -3.25 7.0625 -2.6875 C 6.957031 -2.132812 6.773438 -1.648438 6.515625 -1.234375 C 6.253906 -0.816406 5.90625 -0.488281 5.46875 -0.25 C 5.039062 -0.0078125 4.503906 0.109375 3.859375 0.109375 Z M 3.859375 -0.9375 C 4.316406 -0.9375 4.6875 -1.03125 4.96875 -1.21875 C 5.25 -1.40625 5.460938 -1.660156 5.609375 -1.984375 C 5.753906 -2.304688 5.863281 -2.679688 5.9375 -3.109375 C 6.007812 -3.546875 6.046875 -4.007812 6.046875 -4.5 C 6.046875 -4.96875 6.015625 -5.414062 5.953125 -5.84375 C 5.898438 -6.269531 5.796875 -6.648438 5.640625 -6.984375 C 5.484375 -7.316406 5.257812 -7.578125 4.96875 -7.765625 C 4.6875 -7.960938 4.320312 -8.0625 3.875 -8.0625 C 3.40625 -8.0625 3.035156 -7.960938 2.765625 -7.765625 C 2.492188 -7.578125 2.289062 -7.34375 2.15625 -7.0625 C 2.019531 -6.78125 1.914062 -6.398438 1.84375 -5.921875 C 1.769531 -5.441406 1.734375 -4.96875 1.734375 -4.5 C 1.734375 -4.007812 1.753906 -3.546875 1.796875 -3.109375 C 1.847656 -2.679688 1.945312 -2.304688 2.09375 -1.984375 C 2.25 -1.660156 2.46875 -1.40625 2.75 -1.21875 C 3.03125 -1.03125 3.398438 -0.9375 3.859375 -0.9375 Z M 3.859375 -0.9375 "/></g></g></g><g fill="#faf9f0" fill-opacity="1"><g transform="translate(435.989259, 517.84183)"><g><path d="M 0.515625 -0.859375 L 3.65625 -4.671875 C 3.769531 -4.796875 3.882812 -4.929688 4 -5.078125 C 4.113281 -5.222656 4.21875 -5.375 4.3125 -5.53125 C 4.414062 -5.695312 4.5 -5.863281 4.5625 -6.03125 C 4.632812 -6.207031 4.671875 -6.390625 4.671875 -6.578125 C 4.671875 -6.773438 4.628906 -6.957031 4.546875 -7.125 C 4.460938 -7.300781 4.351562 -7.453125 4.21875 -7.578125 C 4.082031 -7.710938 3.914062 -7.816406 3.71875 -7.890625 C 3.53125 -7.972656 3.328125 -8.015625 3.109375 -8.015625 C 2.898438 -8.015625 2.703125 -7.976562 2.515625 -7.90625 C 2.335938 -7.84375 2.175781 -7.75 2.03125 -7.625 C 1.894531 -7.5 1.785156 -7.34375 1.703125 -7.15625 C 1.617188 -6.96875 1.570312 -6.753906 1.5625 -6.515625 L 0.5 -6.515625 C 0.507812 -6.890625 0.582031 -7.234375 0.71875 -7.546875 C 0.863281 -7.859375 1.054688 -8.128906 1.296875 -8.359375 C 1.535156 -8.585938 1.8125 -8.765625 2.125 -8.890625 C 2.4375 -9.023438 2.765625 -9.09375 3.109375 -9.09375 C 3.515625 -9.09375 3.878906 -9.023438 4.203125 -8.890625 C 4.523438 -8.765625 4.800781 -8.585938 5.03125 -8.359375 C 5.269531 -8.140625 5.453125 -7.878906 5.578125 -7.578125 C 5.710938 -7.273438 5.78125 -6.941406 5.78125 -6.578125 C 5.78125 -6.441406 5.757812 -6.289062 5.71875 -6.125 C 5.6875 -5.96875 5.628906 -5.796875 5.546875 -5.609375 C 5.472656 -5.429688 5.367188 -5.238281 5.234375 -5.03125 C 5.097656 -4.820312 4.929688 -4.597656 4.734375 -4.359375 L 1.953125 -1.03125 L 5.765625 -1.03125 L 5.765625 0 L 0.515625 0 Z M 0.515625 -0.859375 "/></g></g></g><g fill="#faf9f0" fill-opacity="1"><g transform="translate(442.472336, 517.84183)"><g><path d="M 3.859375 0.109375 C 3.222656 0.109375 2.691406 -0.00390625 2.265625 -0.234375 C 1.835938 -0.472656 1.492188 -0.800781 1.234375 -1.21875 C 0.972656 -1.632812 0.785156 -2.117188 0.671875 -2.671875 C 0.566406 -3.222656 0.515625 -3.816406 0.515625 -4.453125 C 0.515625 -5.140625 0.585938 -5.773438 0.734375 -6.359375 C 0.890625 -6.953125 1.09375 -7.425781 1.34375 -7.78125 C 1.59375 -8.144531 1.910156 -8.453125 2.296875 -8.703125 C 2.679688 -8.953125 3.207031 -9.078125 3.875 -9.078125 C 4.507812 -9.078125 5.035156 -8.976562 5.453125 -8.78125 C 5.878906 -8.582031 6.226562 -8.273438 6.5 -7.859375 C 6.769531 -7.441406 6.957031 -6.941406 7.0625 -6.359375 C 7.175781 -5.773438 7.234375 -5.15625 7.234375 -4.5 C 7.234375 -3.851562 7.175781 -3.25 7.0625 -2.6875 C 6.957031 -2.132812 6.773438 -1.648438 6.515625 -1.234375 C 6.253906 -0.816406 5.90625 -0.488281 5.46875 -0.25 C 5.039062 -0.0078125 4.503906 0.109375 3.859375 0.109375 Z M 3.859375 -0.9375 C 4.316406 -0.9375 4.6875 -1.03125 4.96875 -1.21875 C 5.25 -1.40625 5.460938 -1.660156 5.609375 -1.984375 C 5.753906 -2.304688 5.863281 -2.679688 5.9375 -3.109375 C 6.007812 -3.546875 6.046875 -4.007812 6.046875 -4.5 C 6.046875 -4.96875 6.015625 -5.414062 5.953125 -5.84375 C 5.898438 -6.269531 5.796875 -6.648438 5.640625 -6.984375 C 5.484375 -7.316406 5.257812 -7.578125 4.96875 -7.765625 C 4.6875 -7.960938 4.320312 -8.0625 3.875 -8.0625 C 3.40625 -8.0625 3.035156 -7.960938 2.765625 -7.765625 C 2.492188 -7.578125 2.289062 -7.34375 2.15625 -7.0625 C 2.019531 -6.78125 1.914062 -6.398438 1.84375 -5.921875 C 1.769531 -5.441406 1.734375 -4.96875 1.734375 -4.5 C 1.734375 -4.007812 1.753906 -3.546875 1.796875 -3.109375 C 1.847656 -2.679688 1.945312 -2.304688 2.09375 -1.984375 C 2.25 -1.660156 2.46875 -1.40625 2.75 -1.21875 C 3.03125 -1.03125 3.398438 -0.9375 3.859375 -0.9375 Z M 3.859375 -0.9375 "/></g></g></g><g fill="#faf9f0" fill-opacity="1"><g transform="translate(512.051937, 517.84183)"><g><path d="M 0.515625 -0.859375 L 3.65625 -4.671875 C 3.769531 -4.796875 3.882812 -4.929688 4 -5.078125 C 4.113281 -5.222656 4.21875 -5.375 4.3125 -5.53125 C 4.414062 -5.695312 4.5 -5.863281 4.5625 -6.03125 C 4.632812 -6.207031 4.671875 -6.390625 4.671875 -6.578125 C 4.671875 -6.773438 4.628906 -6.957031 4.546875 -7.125 C 4.460938 -7.300781 4.351562 -7.453125 4.21875 -7.578125 C 4.082031 -7.710938 3.914062 -7.816406 3.71875 -7.890625 C 3.53125 -7.972656 3.328125 -8.015625 3.109375 -8.015625 C 2.898438 -8.015625 2.703125 -7.976562 2.515625 -7.90625 C 2.335938 -7.84375 2.175781 -7.75 2.03125 -7.625 C 1.894531 -7.5 1.785156 -7.34375 1.703125 -7.15625 C 1.617188 -6.96875 1.570312 -6.753906 1.5625 -6.515625 L 0.5 -6.515625 C 0.507812 -6.890625 0.582031 -7.234375 0.71875 -7.546875 C 0.863281 -7.859375 1.054688 -8.128906 1.296875 -8.359375 C 1.535156 -8.585938 1.8125 -8.765625 2.125 -8.890625 C 2.4375 -9.023438 2.765625 -9.09375 3.109375 -9.09375 C 3.515625 -9.09375 3.878906 -9.023438 4.203125 -8.890625 C 4.523438 -8.765625 4.800781 -8.585938 5.03125 -8.359375 C 5.269531 -8.140625 5.453125 -7.878906 5.578125 -7.578125 C 5.710938 -7.273438 5.78125 -6.941406 5.78125 -6.578125 C 5.78125 -6.441406 5.757812 -6.289062 5.71875 -6.125 C 5.6875 -5.96875 5.628906 -5.796875 5.546875 -5.609375 C 5.472656 -5.429688 5.367188 -5.238281 5.234375 -5.03125 C 5.097656 -4.820312 4.929688 -4.597656 4.734375 -4.359375 L 1.953125 -1.03125 L 5.765625 -1.03125 L 5.765625 0 L 0.515625 0 Z M 0.515625 -0.859375 "/></g></g></g><g fill="#faf9f0" fill-opacity="1"><g transform="translate(518.535015, 517.84183)"><g><path d="M 3.859375 0.109375 C 3.222656 0.109375 2.691406 -0.00390625 2.265625 -0.234375 C 1.835938 -0.472656 1.492188 -0.800781 1.234375 -1.21875 C 0.972656 -1.632812 0.785156 -2.117188 0.671875 -2.671875 C 0.566406 -3.222656 0.515625 -3.816406 0.515625 -4.453125 C 0.515625 -5.140625 0.585938 -5.773438 0.734375 -6.359375 C 0.890625 -6.953125 1.09375 -7.425781 1.34375 -7.78125 C 1.59375 -8.144531 1.910156 -8.453125 2.296875 -8.703125 C 2.679688 -8.953125 3.207031 -9.078125 3.875 -9.078125 C 4.507812 -9.078125 5.035156 -8.976562 5.453125 -8.78125 C 5.878906 -8.582031 6.226562 -8.273438 6.5 -7.859375 C 6.769531 -7.441406 6.957031 -6.941406 7.0625 -6.359375 C 7.175781 -5.773438 7.234375 -5.15625 7.234375 -4.5 C 7.234375 -3.851562 7.175781 -3.25 7.0625 -2.6875 C 6.957031 -2.132812 6.773438 -1.648438 6.515625 -1.234375 C 6.253906 -0.816406 5.90625 -0.488281 5.46875 -0.25 C 5.039062 -0.0078125 4.503906 0.109375 3.859375 0.109375 Z M 3.859375 -0.9375 C 4.316406 -0.9375 4.6875 -1.03125 4.96875 -1.21875 C 5.25 -1.40625 5.460938 -1.660156 5.609375 -1.984375 C 5.753906 -2.304688 5.863281 -2.679688 5.9375 -3.109375 C 6.007812 -3.546875 6.046875 -4.007812 6.046875 -4.5 C 6.046875 -4.96875 6.015625 -5.414062 5.953125 -5.84375 C 5.898438 -6.269531 5.796875 -6.648438 5.640625 -6.984375 C 5.484375 -7.316406 5.257812 -7.578125 4.96875 -7.765625 C 4.6875 -7.960938 4.320312 -8.0625 3.875 -8.0625 C 3.40625 -8.0625 3.035156 -7.960938 2.765625 -7.765625 C 2.492188 -7.578125 2.289062 -7.34375 2.15625 -7.0625 C 2.019531 -6.78125 1.914062 -6.398438 1.84375 -5.921875 C 1.769531 -5.441406 1.734375 -4.96875 1.734375 -4.5 C 1.734375 -4.007812 1.753906 -3.546875 1.796875 -3.109375 C 1.847656 -2.679688 1.945312 -2.304688 2.09375 -1.984375 C 2.25 -1.660156 2.46875 -1.40625 2.75 -1.21875 C 3.03125 -1.03125 3.398438 -0.9375 3.859375 -0.9375 Z M 3.859375 -0.9375 "/></g></g></g><g fill="#faf9f0" fill-opacity="1"><g transform="translate(526.373646, 517.84183)"><g><path d="M 0.515625 -0.859375 L 3.65625 -4.671875 C 3.769531 -4.796875 3.882812 -4.929688 4 -5.078125 C 4.113281 -5.222656 4.21875 -5.375 4.3125 -5.53125 C 4.414062 -5.695312 4.5 -5.863281 4.5625 -6.03125 C 4.632812 -6.207031 4.671875 -6.390625 4.671875 -6.578125 C 4.671875 -6.773438 4.628906 -6.957031 4.546875 -7.125 C 4.460938 -7.300781 4.351562 -7.453125 4.21875 -7.578125 C 4.082031 -7.710938 3.914062 -7.816406 3.71875 -7.890625 C 3.53125 -7.972656 3.328125 -8.015625 3.109375 -8.015625 C 2.898438 -8.015625 2.703125 -7.976562 2.515625 -7.90625 C 2.335938 -7.84375 2.175781 -7.75 2.03125 -7.625 C 1.894531 -7.5 1.785156 -7.34375 1.703125 -7.15625 C 1.617188 -6.96875 1.570312 -6.753906 1.5625 -6.515625 L 0.5 -6.515625 C 0.507812 -6.890625 0.582031 -7.234375 0.71875 -7.546875 C 0.863281 -7.859375 1.054688 -8.128906 1.296875 -8.359375 C 1.535156 -8.585938 1.8125 -8.765625 2.125 -8.890625 C 2.4375 -9.023438 2.765625 -9.09375 3.109375 -9.09375 C 3.515625 -9.09375 3.878906 -9.023438 4.203125 -8.890625 C 4.523438 -8.765625 4.800781 -8.585938 5.03125 -8.359375 C 5.269531 -8.140625 5.453125 -7.878906 5.578125 -7.578125 C 5.710938 -7.273438 5.78125 -6.941406 5.78125 -6.578125 C 5.78125 -6.441406 5.757812 -6.289062 5.71875 -6.125 C 5.6875 -5.96875 5.628906 -5.796875 5.546875 -5.609375 C 5.472656 -5.429688 5.367188 -5.238281 5.234375 -5.03125 C 5.097656 -4.820312 4.929688 -4.597656 4.734375 -4.359375 L 1.953125 -1.03125 L 5.765625 -1.03125 L 5.765625 0 L 0.515625 0 Z M 0.515625 -0.859375 "/></g></g></g><g fill="#faf9f0" fill-opacity="1"><g transform="translate(532.856723, 517.84183)"><g><path d="M 1.421875 -1.015625 L 2.296875 -1.015625 L 2.296875 -7.5625 L 0.484375 -6.5625 L 0.484375 -7.796875 L 2.96875 -9.1875 L 3.4375 -9.1875 L 3.4375 -1.015625 L 4.328125 -1.015625 L 4.328125 0 L 1.421875 0 Z M 1.421875 -1.015625 "/></g></g></g><g fill="#faf9f0" fill-opacity="1"><g transform="translate(600.312935, 517.84183)"><g><path d="M 0.515625 -0.859375 L 3.65625 -4.671875 C 3.769531 -4.796875 3.882812 -4.929688 4 -5.078125 C 4.113281 -5.222656 4.21875 -5.375 4.3125 -5.53125 C 4.414062 -5.695312 4.5 -5.863281 4.5625 -6.03125 C 4.632812 -6.207031 4.671875 -6.390625 4.671875 -6.578125 C 4.671875 -6.773438 4.628906 -6.957031 4.546875 -7.125 C 4.460938 -7.300781 4.351562 -7.453125 4.21875 -7.578125 C 4.082031 -7.710938 3.914062 -7.816406 3.71875 -7.890625 C 3.53125 -7.972656 3.328125 -8.015625 3.109375 -8.015625 C 2.898438 -8.015625 2.703125 -7.976562 2.515625 -7.90625 C 2.335938 -7.84375 2.175781 -7.75 2.03125 -7.625 C 1.894531 -7.5 1.785156 -7.34375 1.703125 -7.15625 C 1.617188 -6.96875 1.570312 -6.753906 1.5625 -6.515625 L 0.5 -6.515625 C 0.507812 -6.890625 0.582031 -7.234375 0.71875 -7.546875 C 0.863281 -7.859375 1.054688 -8.128906 1.296875 -8.359375 C 1.535156 -8.585938 1.8125 -8.765625 2.125 -8.890625 C 2.4375 -9.023438 2.765625 -9.09375 3.109375 -9.09375 C 3.515625 -9.09375 3.878906 -9.023438 4.203125 -8.890625 C 4.523438 -8.765625 4.800781 -8.585938 5.03125 -8.359375 C 5.269531 -8.140625 5.453125 -7.878906 5.578125 -7.578125 C 5.710938 -7.273438 5.78125 -6.941406 5.78125 -6.578125 C 5.78125 -6.441406 5.757812 -6.289062 5.71875 -6.125 C 5.6875 -5.96875 5.628906 -5.796875 5.546875 -5.609375 C 5.472656 -5.429688 5.367188 -5.238281 5.234375 -5.03125 C 5.097656 -4.820312 4.929688 -4.597656 4.734375 -4.359375 L 1.953125 -1.03125 L 5.765625 -1.03125 L 5.765625 0 L 0.515625 0 Z M 0.515625 -0.859375 "/></g></g></g><g fill="#faf9f0" fill-opacity="1"><g transform="translate(606.796013, 517.84183)"><g><path d="M 3.859375 0.109375 C 3.222656 0.109375 2.691406 -0.00390625 2.265625 -0.234375 C 1.835938 -0.472656 1.492188 -0.800781 1.234375 -1.21875 C 0.972656 -1.632812 0.785156 -2.117188 0.671875 -2.671875 C 0.566406 -3.222656 0.515625 -3.816406 0.515625 -4.453125 C 0.515625 -5.140625 0.585938 -5.773438 0.734375 -6.359375 C 0.890625 -6.953125 1.09375 -7.425781 1.34375 -7.78125 C 1.59375 -8.144531 1.910156 -8.453125 2.296875 -8.703125 C 2.679688 -8.953125 3.207031 -9.078125 3.875 -9.078125 C 4.507812 -9.078125 5.035156 -8.976562 5.453125 -8.78125 C 5.878906 -8.582031 6.226562 -8.273438 6.5 -7.859375 C 6.769531 -7.441406 6.957031 -6.941406 7.0625 -6.359375 C 7.175781 -5.773438 7.234375 -5.15625 7.234375 -4.5 C 7.234375 -3.851562 7.175781 -3.25 7.0625 -2.6875 C 6.957031 -2.132812 6.773438 -1.648438 6.515625 -1.234375 C 6.253906 -0.816406 5.90625 -0.488281 5.46875 -0.25 C 5.039062 -0.0078125 4.503906 0.109375 3.859375 0.109375 Z M 3.859375 -0.9375 C 4.316406 -0.9375 4.6875 -1.03125 4.96875 -1.21875 C 5.25 -1.40625 5.460938 -1.660156 5.609375 -1.984375 C 5.753906 -2.304688 5.863281 -2.679688 5.9375 -3.109375 C 6.007812 -3.546875 6.046875 -4.007812 6.046875 -4.5 C 6.046875 -4.96875 6.015625 -5.414062 5.953125 -5.84375 C 5.898438 -6.269531 5.796875 -6.648438 5.640625 -6.984375 C 5.484375 -7.316406 5.257812 -7.578125 4.96875 -7.765625 C 4.6875 -7.960938 4.320312 -8.0625 3.875 -8.0625 C 3.40625 -8.0625 3.035156 -7.960938 2.765625 -7.765625 C 2.492188 -7.578125 2.289062 -7.34375 2.15625 -7.0625 C 2.019531 -6.78125 1.914062 -6.398438 1.84375 -5.921875 C 1.769531 -5.441406 1.734375 -4.96875 1.734375 -4.5 C 1.734375 -4.007812 1.753906 -3.546875 1.796875 -3.109375 C 1.847656 -2.679688 1.945312 -2.304688 2.09375 -1.984375 C 2.25 -1.660156 2.46875 -1.40625 2.75 -1.21875 C 3.03125 -1.03125 3.398438 -0.9375 3.859375 -0.9375 Z M 3.859375 -0.9375 "/></g></g></g><g fill="#faf9f0" fill-opacity="1"><g transform="translate(614.634643, 517.84183)"><g><path d="M 0.515625 -0.859375 L 3.65625 -4.671875 C 3.769531 -4.796875 3.882812 -4.929688 4 -5.078125 C 4.113281 -5.222656 4.21875 -5.375 4.3125 -5.53125 C 4.414062 -5.695312 4.5 -5.863281 4.5625 -6.03125 C 4.632812 -6.207031 4.671875 -6.390625 4.671875 -6.578125 C 4.671875 -6.773438 4.628906 -6.957031 4.546875 -7.125 C 4.460938 -7.300781 4.351562 -7.453125 4.21875 -7.578125 C 4.082031 -7.710938 3.914062 -7.816406 3.71875 -7.890625 C 3.53125 -7.972656 3.328125 -8.015625 3.109375 -8.015625 C 2.898438 -8.015625 2.703125 -7.976562 2.515625 -7.90625 C 2.335938 -7.84375 2.175781 -7.75 2.03125 -7.625 C 1.894531 -7.5 1.785156 -7.34375 1.703125 -7.15625 C 1.617188 -6.96875 1.570312 -6.753906 1.5625 -6.515625 L 0.5 -6.515625 C 0.507812 -6.890625 0.582031 -7.234375 0.71875 -7.546875 C 0.863281 -7.859375 1.054688 -8.128906 1.296875 -8.359375 C 1.535156 -8.585938 1.8125 -8.765625 2.125 -8.890625 C 2.4375 -9.023438 2.765625 -9.09375 3.109375 -9.09375 C 3.515625 -9.09375 3.878906 -9.023438 4.203125 -8.890625 C 4.523438 -8.765625 4.800781 -8.585938 5.03125 -8.359375 C 5.269531 -8.140625 5.453125 -7.878906 5.578125 -7.578125 C 5.710938 -7.273438 5.78125 -6.941406 5.78125 -6.578125 C 5.78125 -6.441406 5.757812 -6.289062 5.71875 -6.125 C 5.6875 -5.96875 5.628906 -5.796875 5.546875 -5.609375 C 5.472656 -5.429688 5.367188 -5.238281 5.234375 -5.03125 C 5.097656 -4.820312 4.929688 -4.597656 4.734375 -4.359375 L 1.953125 -1.03125 L 5.765625 -1.03125 L 5.765625 0 L 0.515625 0 Z M 0.515625 -0.859375 "/></g></g></g><g fill="#faf9f0" fill-opacity="1"><g transform="translate(621.117721, 517.84183)"><g><path d="M 0.515625 -0.859375 L 3.65625 -4.671875 C 3.769531 -4.796875 3.882812 -4.929688 4 -5.078125 C 4.113281 -5.222656 4.21875 -5.375 4.3125 -5.53125 C 4.414062 -5.695312 4.5 -5.863281 4.5625 -6.03125 C 4.632812 -6.207031 4.671875 -6.390625 4.671875 -6.578125 C 4.671875 -6.773438 4.628906 -6.957031 4.546875 -7.125 C 4.460938 -7.300781 4.351562 -7.453125 4.21875 -7.578125 C 4.082031 -7.710938 3.914062 -7.816406 3.71875 -7.890625 C 3.53125 -7.972656 3.328125 -8.015625 3.109375 -8.015625 C 2.898438 -8.015625 2.703125 -7.976562 2.515625 -7.90625 C 2.335938 -7.84375 2.175781 -7.75 2.03125 -7.625 C 1.894531 -7.5 1.785156 -7.34375 1.703125 -7.15625 C 1.617188 -6.96875 1.570312 -6.753906 1.5625 -6.515625 L 0.5 -6.515625 C 0.507812 -6.890625 0.582031 -7.234375 0.71875 -7.546875 C 0.863281 -7.859375 1.054688 -8.128906 1.296875 -8.359375 C 1.535156 -8.585938 1.8125 -8.765625 2.125 -8.890625 C 2.4375 -9.023438 2.765625 -9.09375 3.109375 -9.09375 C 3.515625 -9.09375 3.878906 -9.023438 4.203125 -8.890625 C 4.523438 -8.765625 4.800781 -8.585938 5.03125 -8.359375 C 5.269531 -8.140625 5.453125 -7.878906 5.578125 -7.578125 C 5.710938 -7.273438 5.78125 -6.941406 5.78125 -6.578125 C 5.78125 -6.441406 5.757812 -6.289062 5.71875 -6.125 C 5.6875 -5.96875 5.628906 -5.796875 5.546875 -5.609375 C 5.472656 -5.429688 5.367188 -5.238281 5.234375 -5.03125 C 5.097656 -4.820312 4.929688 -4.597656 4.734375 -4.359375 L 1.953125 -1.03125 L 5.765625 -1.03125 L 5.765625 0 L 0.515625 0 Z M 0.515625 -0.859375 "/></g></g></g><g fill="#faf9f0" fill-opacity="1"><g transform="translate(689.273059, 517.84183)"><g><path d="M 0.515625 -0.859375 L 3.65625 -4.671875 C 3.769531 -4.796875 3.882812 -4.929688 4 -5.078125 C 4.113281 -5.222656 4.21875 -5.375 4.3125 -5.53125 C 4.414062 -5.695312 4.5 -5.863281 4.5625 -6.03125 C 4.632812 -6.207031 4.671875 -6.390625 4.671875 -6.578125 C 4.671875 -6.773438 4.628906 -6.957031 4.546875 -7.125 C 4.460938 -7.300781 4.351562 -7.453125 4.21875 -7.578125 C 4.082031 -7.710938 3.914062 -7.816406 3.71875 -7.890625 C 3.53125 -7.972656 3.328125 -8.015625 3.109375 -8.015625 C 2.898438 -8.015625 2.703125 -7.976562 2.515625 -7.90625 C 2.335938 -7.84375 2.175781 -7.75 2.03125 -7.625 C 1.894531 -7.5 1.785156 -7.34375 1.703125 -7.15625 C 1.617188 -6.96875 1.570312 -6.753906 1.5625 -6.515625 L 0.5 -6.515625 C 0.507812 -6.890625 0.582031 -7.234375 0.71875 -7.546875 C 0.863281 -7.859375 1.054688 -8.128906 1.296875 -8.359375 C 1.535156 -8.585938 1.8125 -8.765625 2.125 -8.890625 C 2.4375 -9.023438 2.765625 -9.09375 3.109375 -9.09375 C 3.515625 -9.09375 3.878906 -9.023438 4.203125 -8.890625 C 4.523438 -8.765625 4.800781 -8.585938 5.03125 -8.359375 C 5.269531 -8.140625 5.453125 -7.878906 5.578125 -7.578125 C 5.710938 -7.273438 5.78125 -6.941406 5.78125 -6.578125 C 5.78125 -6.441406 5.757812 -6.289062 5.71875 -6.125 C 5.6875 -5.96875 5.628906 -5.796875 5.546875 -5.609375 C 5.472656 -5.429688 5.367188 -5.238281 5.234375 -5.03125 C 5.097656 -4.820312 4.929688 -4.597656 4.734375 -4.359375 L 1.953125 -1.03125 L 5.765625 -1.03125 L 5.765625 0 L 0.515625 0 Z M 0.515625 -0.859375 "/></g></g></g><g fill="#faf9f0" fill-opacity="1"><g transform="translate(695.756137, 517.84183)"><g><path d="M 3.859375 0.109375 C 3.222656 0.109375 2.691406 -0.00390625 2.265625 -0.234375 C 1.835938 -0.472656 1.492188 -0.800781 1.234375 -1.21875 C 0.972656 -1.632812 0.785156 -2.117188 0.671875 -2.671875 C 0.566406 -3.222656 0.515625 -3.816406 0.515625 -4.453125 C 0.515625 -5.140625 0.585938 -5.773438 0.734375 -6.359375 C 0.890625 -6.953125 1.09375 -7.425781 1.34375 -7.78125 C 1.59375 -8.144531 1.910156 -8.453125 2.296875 -8.703125 C 2.679688 -8.953125 3.207031 -9.078125 3.875 -9.078125 C 4.507812 -9.078125 5.035156 -8.976562 5.453125 -8.78125 C 5.878906 -8.582031 6.226562 -8.273438 6.5 -7.859375 C 6.769531 -7.441406 6.957031 -6.941406 7.0625 -6.359375 C 7.175781 -5.773438 7.234375 -5.15625 7.234375 -4.5 C 7.234375 -3.851562 7.175781 -3.25 7.0625 -2.6875 C 6.957031 -2.132812 6.773438 -1.648438 6.515625 -1.234375 C 6.253906 -0.816406 5.90625 -0.488281 5.46875 -0.25 C 5.039062 -0.0078125 4.503906 0.109375 3.859375 0.109375 Z M 3.859375 -0.9375 C 4.316406 -0.9375 4.6875 -1.03125 4.96875 -1.21875 C 5.25 -1.40625 5.460938 -1.660156 5.609375 -1.984375 C 5.753906 -2.304688 5.863281 -2.679688 5.9375 -3.109375 C 6.007812 -3.546875 6.046875 -4.007812 6.046875 -4.5 C 6.046875 -4.96875 6.015625 -5.414062 5.953125 -5.84375 C 5.898438 -6.269531 5.796875 -6.648438 5.640625 -6.984375 C 5.484375 -7.316406 5.257812 -7.578125 4.96875 -7.765625 C 4.6875 -7.960938 4.320312 -8.0625 3.875 -8.0625 C 3.40625 -8.0625 3.035156 -7.960938 2.765625 -7.765625 C 2.492188 -7.578125 2.289062 -7.34375 2.15625 -7.0625 C 2.019531 -6.78125 1.914062 -6.398438 1.84375 -5.921875 C 1.769531 -5.441406 1.734375 -4.96875 1.734375 -4.5 C 1.734375 -4.007812 1.753906 -3.546875 1.796875 -3.109375 C 1.847656 -2.679688 1.945312 -2.304688 2.09375 -1.984375 C 2.25 -1.660156 2.46875 -1.40625 2.75 -1.21875 C 3.03125 -1.03125 3.398438 -0.9375 3.859375 -0.9375 Z M 3.859375 -0.9375 "/></g></g></g><g fill="#faf9f0" fill-opacity="1"><g transform="translate(703.594767, 517.84183)"><g><path d="M 0.515625 -0.859375 L 3.65625 -4.671875 C 3.769531 -4.796875 3.882812 -4.929688 4 -5.078125 C 4.113281 -5.222656 4.21875 -5.375 4.3125 -5.53125 C 4.414062 -5.695312 4.5 -5.863281 4.5625 -6.03125 C 4.632812 -6.207031 4.671875 -6.390625 4.671875 -6.578125 C 4.671875 -6.773438 4.628906 -6.957031 4.546875 -7.125 C 4.460938 -7.300781 4.351562 -7.453125 4.21875 -7.578125 C 4.082031 -7.710938 3.914062 -7.816406 3.71875 -7.890625 C 3.53125 -7.972656 3.328125 -8.015625 3.109375 -8.015625 C 2.898438 -8.015625 2.703125 -7.976562 2.515625 -7.90625 C 2.335938 -7.84375 2.175781 -7.75 2.03125 -7.625 C 1.894531 -7.5 1.785156 -7.34375 1.703125 -7.15625 C 1.617188 -6.96875 1.570312 -6.753906 1.5625 -6.515625 L 0.5 -6.515625 C 0.507812 -6.890625 0.582031 -7.234375 0.71875 -7.546875 C 0.863281 -7.859375 1.054688 -8.128906 1.296875 -8.359375 C 1.535156 -8.585938 1.8125 -8.765625 2.125 -8.890625 C 2.4375 -9.023438 2.765625 -9.09375 3.109375 -9.09375 C 3.515625 -9.09375 3.878906 -9.023438 4.203125 -8.890625 C 4.523438 -8.765625 4.800781 -8.585938 5.03125 -8.359375 C 5.269531 -8.140625 5.453125 -7.878906 5.578125 -7.578125 C 5.710938 -7.273438 5.78125 -6.941406 5.78125 -6.578125 C 5.78125 -6.441406 5.757812 -6.289062 5.71875 -6.125 C 5.6875 -5.96875 5.628906 -5.796875 5.546875 -5.609375 C 5.472656 -5.429688 5.367188 -5.238281 5.234375 -5.03125 C 5.097656 -4.820312 4.929688 -4.597656 4.734375 -4.359375 L 1.953125 -1.03125 L 5.765625 -1.03125 L 5.765625 0 L 0.515625 0 Z M 0.515625 -0.859375 "/></g></g></g><g fill="#faf9f0" fill-opacity="1"><g transform="translate(710.077845, 517.84183)"><g><path d="M 4.59375 -6.609375 C 4.59375 -6.753906 4.5625 -6.914062 4.5 -7.09375 C 4.4375 -7.269531 4.335938 -7.429688 4.203125 -7.578125 C 4.066406 -7.722656 3.894531 -7.84375 3.6875 -7.9375 C 3.476562 -8.039062 3.234375 -8.09375 2.953125 -8.09375 C 2.722656 -8.09375 2.515625 -8.050781 2.328125 -7.96875 C 2.140625 -7.882812 1.945312 -7.734375 1.75 -7.515625 C 1.5625 -7.296875 1.460938 -7.050781 1.453125 -6.78125 L 0.328125 -6.78125 C 0.347656 -7.125 0.429688 -7.429688 0.578125 -7.703125 C 0.734375 -7.984375 0.925781 -8.226562 1.15625 -8.4375 C 1.394531 -8.644531 1.664062 -8.8125 1.96875 -8.9375 C 2.28125 -9.0625 2.609375 -9.125 2.953125 -9.125 C 3.367188 -9.125 3.75 -9.050781 4.09375 -8.90625 C 4.4375 -8.769531 4.726562 -8.585938 4.96875 -8.359375 C 5.207031 -8.128906 5.390625 -7.863281 5.515625 -7.5625 C 5.648438 -7.269531 5.71875 -6.972656 5.71875 -6.671875 C 5.71875 -6.472656 5.691406 -6.28125 5.640625 -6.09375 C 5.597656 -5.90625 5.523438 -5.722656 5.421875 -5.546875 C 5.328125 -5.378906 5.203125 -5.222656 5.046875 -5.078125 C 4.890625 -4.929688 4.695312 -4.804688 4.46875 -4.703125 C 4.65625 -4.628906 4.832031 -4.523438 5 -4.390625 C 5.164062 -4.265625 5.304688 -4.113281 5.421875 -3.9375 C 5.546875 -3.769531 5.644531 -3.570312 5.71875 -3.34375 C 5.789062 -3.113281 5.828125 -2.867188 5.828125 -2.609375 C 5.828125 -2.222656 5.75 -1.863281 5.59375 -1.53125 C 5.445312 -1.207031 5.242188 -0.925781 4.984375 -0.6875 C 4.734375 -0.445312 4.4375 -0.257812 4.09375 -0.125 C 3.75 0.0078125 3.378906 0.078125 2.984375 0.078125 C 2.617188 0.078125 2.257812 0.015625 1.90625 -0.109375 C 1.550781 -0.234375 1.25 -0.414062 1 -0.65625 C 0.75 -0.894531 0.566406 -1.140625 0.453125 -1.390625 C 0.335938 -1.648438 0.265625 -1.90625 0.234375 -2.15625 L 1.375 -2.15625 C 1.488281 -1.789062 1.691406 -1.503906 1.984375 -1.296875 C 2.273438 -1.085938 2.648438 -0.984375 3.109375 -0.984375 C 3.304688 -0.984375 3.503906 -1.023438 3.703125 -1.109375 C 3.898438 -1.191406 4.070312 -1.304688 4.21875 -1.453125 C 4.363281 -1.597656 4.484375 -1.769531 4.578125 -1.96875 C 4.671875 -2.164062 4.71875 -2.382812 4.71875 -2.625 C 4.71875 -2.863281 4.671875 -3.082031 4.578125 -3.28125 C 4.484375 -3.488281 4.359375 -3.660156 4.203125 -3.796875 C 4.054688 -3.941406 3.878906 -4.050781 3.671875 -4.125 C 3.472656 -4.195312 3.257812 -4.234375 3.03125 -4.234375 L 2.53125 -4.234375 L 2.53125 -5.125 L 2.9375 -5.125 C 3.195312 -5.125 3.429688 -5.160156 3.640625 -5.234375 C 3.847656 -5.316406 4.019531 -5.425781 4.15625 -5.5625 C 4.300781 -5.695312 4.410156 -5.851562 4.484375 -6.03125 C 4.554688 -6.207031 4.59375 -6.398438 4.59375 -6.609375 Z M 4.59375 -6.609375 "/></g></g></g><g clip-path="url(#1ec46a6bfd)"><g mask="url(#1671fa4f17)"><g transform="matrix(1, 0, 0, 1, 391, 74)"><g clip-path="url(#bbc247ec34)"><g clip-path="url(#f19f75eee7)"><path fill="#faf9f0" d="M 0.5 0.625 L 356.75 0.625 L 356.75 427.375 L 0.5 427.375 Z M 0.5 0.625 " fill-opacity="1" fill-rule="nonzero"/></g></g></g></g></g><g clip-path="url(#8aae6561b4)"><g mask="url(#2e551bcaeb)"><g transform="matrix(1, 0, 0, 1, 391, 159)"><g clip-path="url(#350a6f580f)"><g clip-path="url(#5c6dc21de4)"><path fill="#faf9f0" d="M 0.5 -84.375 L 356.75 -84.375 L 356.75 342.375 L 0.5 342.375 Z M 0.5 -84.375 " fill-opacity="1" fill-rule="nonzero"/></g></g></g></g></g><g clip-path="url(#67c3296dc7)"><g mask="url(#87384e63e1)"><g transform="matrix(1, 0, 0, 1, 391, 245)"><g clip-path="url(#2cb2b30900)"><g clip-path="url(#f0467034cf)"><path fill="#faf9f0" d="M 0.5 -170.375 L 356.75 -170.375 L 356.75 256.375 L 0.5 256.375 Z M 0.5 -170.375 " fill-opacity="1" fill-rule="nonzero"/></g></g></g></g></g><g clip-path="url(#6794b9c8c6)"><g mask="url(#aa8be9ec45)"><g transform="matrix(1, 0, 0, 1, 391, 330)"><g clip-path="url(#ea70d5cc94)"><g clip-path="url(#e77bd5eae4)"><path fill="#faf9f0" d="M 0.5 -255.375 L 356.75 -255.375 L 356.75 171.375 L 0.5 171.375 Z M 0.5 -255.375 " fill-opacity="1" fill-rule="nonzero"/></g></g></g></g></g><g clip-path="url(#cc50edd749)"><g mask="url(#e8e39362df)"><g transform="matrix(1, 0, 0, 1, 391, 415)"><g clip-path="url(#50aa09a264)"><g clip-path="url(#b0570bb2ce)"><path fill="#faf9f0" d="M 0.5 -340.375 L 356.75 -340.375 L 356.75 86.375 L 0.5 86.375 Z M 0.5 -340.375 " fill-opacity="1" fill-rule="nonzero"/></g></g></g></g></g><g clip-path="url(#26e9fccb1c)"><g mask="url(#308dbe2568)"><g transform="matrix(1, 0, 0, 1, 391, 500)"><g clip-path="url(#41411138f6)"><g clip-path="url(#9b956c8139)"><path fill="#faf9f0" d="M 0.5 -425.375 L 356.75 -425.375 L 356.75 1.375 L 0.5 1.375 Z M 0.5 -425.375 " fill-opacity="1" fill-rule="nonzero"/></g></g></g></g></g><g fill="#faf9f0" fill-opacity="1"><g transform="translate(350.599994, 78.750017)"><g><path d="M 0.515625 -0.859375 L 3.65625 -4.671875 C 3.769531 -4.796875 3.882812 -4.929688 4 -5.078125 C 4.113281 -5.222656 4.21875 -5.375 4.3125 -5.53125 C 4.414062 -5.695312 4.5 -5.863281 4.5625 -6.03125 C 4.632812 -6.207031 4.671875 -6.390625 4.671875 -6.578125 C 4.671875 -6.773438 4.628906 -6.957031 4.546875 -7.125 C 4.460938 -7.300781 4.351562 -7.453125 4.21875 -7.578125 C 4.082031 -7.710938 3.914062 -7.816406 3.71875 -7.890625 C 3.53125 -7.972656 3.328125 -8.015625 3.109375 -8.015625 C 2.898438 -8.015625 2.703125 -7.976562 2.515625 -7.90625 C 2.335938 -7.84375 2.175781 -7.75 2.03125 -7.625 C 1.894531 -7.5 1.785156 -7.34375 1.703125 -7.15625 C 1.617188 -6.96875 1.570312 -6.753906 1.5625 -6.515625 L 0.5 -6.515625 C 0.507812 -6.890625 0.582031 -7.234375 0.71875 -7.546875 C 0.863281 -7.859375 1.054688 -8.128906 1.296875 -8.359375 C 1.535156 -8.585938 1.8125 -8.765625 2.125 -8.890625 C 2.4375 -9.023438 2.765625 -9.09375 3.109375 -9.09375 C 3.515625 -9.09375 3.878906 -9.023438 4.203125 -8.890625 C 4.523438 -8.765625 4.800781 -8.585938 5.03125 -8.359375 C 5.269531 -8.140625 5.453125 -7.878906 5.578125 -7.578125 C 5.710938 -7.273438 5.78125 -6.941406 5.78125 -6.578125 C 5.78125 -6.441406 5.757812 -6.289062 5.71875 -6.125 C 5.6875 -5.96875 5.628906 -5.796875 5.546875 -5.609375 C 5.472656 -5.429688 5.367188 -5.238281 5.234375 -5.03125 C 5.097656 -4.820312 4.929688 -4.597656 4.734375 -4.359375 L 1.953125 -1.03125 L 5.765625 -1.03125 L 5.765625 0 L 0.515625 0 Z M 0.515625 -0.859375 "/></g></g></g><g fill="#faf9f0" fill-opacity="1"><g transform="translate(357.083072, 78.750017)"><g><path d="M 1.203125 -1.671875 L 2.5 -1.15625 L 0.96875 2 L 0.125 1.6875 Z M 1.203125 -1.671875 "/></g></g></g><g fill="#faf9f0" fill-opacity="1"><g transform="translate(360.436591, 78.750017)"><g><path d="M 1.875 -5.265625 C 2.09375 -5.421875 2.316406 -5.535156 2.546875 -5.609375 C 2.773438 -5.679688 3.039062 -5.71875 3.34375 -5.71875 C 3.78125 -5.71875 4.179688 -5.640625 4.546875 -5.484375 C 4.921875 -5.328125 5.238281 -5.113281 5.5 -4.84375 C 5.769531 -4.582031 5.976562 -4.273438 6.125 -3.921875 C 6.28125 -3.566406 6.359375 -3.191406 6.359375 -2.796875 C 6.359375 -2.390625 6.285156 -2.003906 6.140625 -1.640625 C 5.992188 -1.285156 5.785156 -0.972656 5.515625 -0.703125 C 5.242188 -0.429688 4.921875 -0.210938 4.546875 -0.046875 C 4.171875 0.109375 3.753906 0.1875 3.296875 0.1875 C 2.941406 0.1875 2.613281 0.140625 2.3125 0.046875 C 2.007812 -0.046875 1.734375 -0.175781 1.484375 -0.34375 C 1.242188 -0.507812 1.035156 -0.707031 0.859375 -0.9375 C 0.679688 -1.175781 0.539062 -1.429688 0.4375 -1.703125 L 1.40625 -2.1875 C 1.46875 -1.988281 1.554688 -1.800781 1.671875 -1.625 C 1.796875 -1.457031 1.941406 -1.3125 2.109375 -1.1875 C 2.273438 -1.0625 2.457031 -0.960938 2.65625 -0.890625 C 2.851562 -0.828125 3.066406 -0.796875 3.296875 -0.796875 C 3.578125 -0.796875 3.835938 -0.847656 4.078125 -0.953125 C 4.328125 -1.054688 4.539062 -1.195312 4.71875 -1.375 C 4.894531 -1.5625 5.035156 -1.773438 5.140625 -2.015625 C 5.242188 -2.253906 5.296875 -2.515625 5.296875 -2.796875 C 5.296875 -3.066406 5.242188 -3.320312 5.140625 -3.5625 C 5.035156 -3.800781 4.890625 -4.007812 4.703125 -4.1875 C 4.523438 -4.363281 4.316406 -4.5 4.078125 -4.59375 C 3.835938 -4.695312 3.578125 -4.75 3.296875 -4.75 C 2.984375 -4.75 2.691406 -4.691406 2.421875 -4.578125 C 2.160156 -4.460938 1.941406 -4.3125 1.765625 -4.125 L 0.890625 -4.265625 L 0.890625 -8.9375 L 5.9375 -8.9375 L 5.9375 -7.96875 L 1.875 -7.96875 Z M 1.875 -5.265625 "/></g></g></g><g fill="#faf9f0" fill-opacity="1"><g transform="translate(367.149524, 78.750017)"><g><path d="M 3.859375 0.109375 C 3.222656 0.109375 2.691406 -0.00390625 2.265625 -0.234375 C 1.835938 -0.472656 1.492188 -0.800781 1.234375 -1.21875 C 0.972656 -1.632812 0.785156 -2.117188 0.671875 -2.671875 C 0.566406 -3.222656 0.515625 -3.816406 0.515625 -4.453125 C 0.515625 -5.140625 0.585938 -5.773438 0.734375 -6.359375 C 0.890625 -6.953125 1.09375 -7.425781 1.34375 -7.78125 C 1.59375 -8.144531 1.910156 -8.453125 2.296875 -8.703125 C 2.679688 -8.953125 3.207031 -9.078125 3.875 -9.078125 C 4.507812 -9.078125 5.035156 -8.976562 5.453125 -8.78125 C 5.878906 -8.582031 6.226562 -8.273438 6.5 -7.859375 C 6.769531 -7.441406 6.957031 -6.941406 7.0625 -6.359375 C 7.175781 -5.773438 7.234375 -5.15625 7.234375 -4.5 C 7.234375 -3.851562 7.175781 -3.25 7.0625 -2.6875 C 6.957031 -2.132812 6.773438 -1.648438 6.515625 -1.234375 C 6.253906 -0.816406 5.90625 -0.488281 5.46875 -0.25 C 5.039062 -0.0078125 4.503906 0.109375 3.859375 0.109375 Z M 3.859375 -0.9375 C 4.316406 -0.9375 4.6875 -1.03125 4.96875 -1.21875 C 5.25 -1.40625 5.460938 -1.660156 5.609375 -1.984375 C 5.753906 -2.304688 5.863281 -2.679688 5.9375 -3.109375 C 6.007812 -3.546875 6.046875 -4.007812 6.046875 -4.5 C 6.046875 -4.96875 6.015625 -5.414062 5.953125 -5.84375 C 5.898438 -6.269531 5.796875 -6.648438 5.640625 -6.984375 C 5.484375 -7.316406 5.257812 -7.578125 4.96875 -7.765625 C 4.6875 -7.960938 4.320312 -8.0625 3.875 -8.0625 C 3.40625 -8.0625 3.035156 -7.960938 2.765625 -7.765625 C 2.492188 -7.578125 2.289062 -7.34375 2.15625 -7.0625 C 2.019531 -6.78125 1.914062 -6.398438 1.84375 -5.921875 C 1.769531 -5.441406 1.734375 -4.96875 1.734375 -4.5 C 1.734375 -4.007812 1.753906 -3.546875 1.796875 -3.109375 C 1.847656 -2.679688 1.945312 -2.304688 2.09375 -1.984375 C 2.25 -1.660156 2.46875 -1.40625 2.75 -1.21875 C 3.03125 -1.03125 3.398438 -0.9375 3.859375 -0.9375 Z M 3.859375 -0.9375 "/></g></g></g><g fill="#faf9f0" fill-opacity="1"><g transform="translate(374.988154, 78.750017)"><g><path d="M 3.859375 0.109375 C 3.222656 0.109375 2.691406 -0.00390625 2.265625 -0.234375 C 1.835938 -0.472656 1.492188 -0.800781 1.234375 -1.21875 C 0.972656 -1.632812 0.785156 -2.117188 0.671875 -2.671875 C 0.566406 -3.222656 0.515625 -3.816406 0.515625 -4.453125 C 0.515625 -5.140625 0.585938 -5.773438 0.734375 -6.359375 C 0.890625 -6.953125 1.09375 -7.425781 1.34375 -7.78125 C 1.59375 -8.144531 1.910156 -8.453125 2.296875 -8.703125 C 2.679688 -8.953125 3.207031 -9.078125 3.875 -9.078125 C 4.507812 -9.078125 5.035156 -8.976562 5.453125 -8.78125 C 5.878906 -8.582031 6.226562 -8.273438 6.5 -7.859375 C 6.769531 -7.441406 6.957031 -6.941406 7.0625 -6.359375 C 7.175781 -5.773438 7.234375 -5.15625 7.234375 -4.5 C 7.234375 -3.851562 7.175781 -3.25 7.0625 -2.6875 C 6.957031 -2.132812 6.773438 -1.648438 6.515625 -1.234375 C 6.253906 -0.816406 5.90625 -0.488281 5.46875 -0.25 C 5.039062 -0.0078125 4.503906 0.109375 3.859375 0.109375 Z M 3.859375 -0.9375 C 4.316406 -0.9375 4.6875 -1.03125 4.96875 -1.21875 C 5.25 -1.40625 5.460938 -1.660156 5.609375 -1.984375 C 5.753906 -2.304688 5.863281 -2.679688 5.9375 -3.109375 C 6.007812 -3.546875 6.046875 -4.007812 6.046875 -4.5 C 6.046875 -4.96875 6.015625 -5.414062 5.953125 -5.84375 C 5.898438 -6.269531 5.796875 -6.648438 5.640625 -6.984375 C 5.484375 -7.316406 5.257812 -7.578125 4.96875 -7.765625 C 4.6875 -7.960938 4.320312 -8.0625 3.875 -8.0625 C 3.40625 -8.0625 3.035156 -7.960938 2.765625 -7.765625 C 2.492188 -7.578125 2.289062 -7.34375 2.15625 -7.0625 C 2.019531 -6.78125 1.914062 -6.398438 1.84375 -5.921875 C 1.769531 -5.441406 1.734375 -4.96875 1.734375 -4.5 C 1.734375 -4.007812 1.753906 -3.546875 1.796875 -3.109375 C 1.847656 -2.679688 1.945312 -2.304688 2.09375 -1.984375 C 2.25 -1.660156 2.46875 -1.40625 2.75 -1.21875 C 3.03125 -1.03125 3.398438 -0.9375 3.859375 -0.9375 Z M 3.859375 -0.9375 "/></g></g></g><g fill="#faf9f0" fill-opacity="1"><g transform="translate(382.826555, 78.750017)"><g><path d="M 0 0 Z M 0 0 "/></g></g></g><g fill="#faf9f0" fill-opacity="1"><g transform="translate(349.474994, 163.952372)"><g><path d="M 0.515625 -0.859375 L 3.65625 -4.671875 C 3.769531 -4.796875 3.882812 -4.929688 4 -5.078125 C 4.113281 -5.222656 4.21875 -5.375 4.3125 -5.53125 C 4.414062 -5.695312 4.5 -5.863281 4.5625 -6.03125 C 4.632812 -6.207031 4.671875 -6.390625 4.671875 -6.578125 C 4.671875 -6.773438 4.628906 -6.957031 4.546875 -7.125 C 4.460938 -7.300781 4.351562 -7.453125 4.21875 -7.578125 C 4.082031 -7.710938 3.914062 -7.816406 3.71875 -7.890625 C 3.53125 -7.972656 3.328125 -8.015625 3.109375 -8.015625 C 2.898438 -8.015625 2.703125 -7.976562 2.515625 -7.90625 C 2.335938 -7.84375 2.175781 -7.75 2.03125 -7.625 C 1.894531 -7.5 1.785156 -7.34375 1.703125 -7.15625 C 1.617188 -6.96875 1.570312 -6.753906 1.5625 -6.515625 L 0.5 -6.515625 C 0.507812 -6.890625 0.582031 -7.234375 0.71875 -7.546875 C 0.863281 -7.859375 1.054688 -8.128906 1.296875 -8.359375 C 1.535156 -8.585938 1.8125 -8.765625 2.125 -8.890625 C 2.4375 -9.023438 2.765625 -9.09375 3.109375 -9.09375 C 3.515625 -9.09375 3.878906 -9.023438 4.203125 -8.890625 C 4.523438 -8.765625 4.800781 -8.585938 5.03125 -8.359375 C 5.269531 -8.140625 5.453125 -7.878906 5.578125 -7.578125 C 5.710938 -7.273438 5.78125 -6.941406 5.78125 -6.578125 C 5.78125 -6.441406 5.757812 -6.289062 5.71875 -6.125 C 5.6875 -5.96875 5.628906 -5.796875 5.546875 -5.609375 C 5.472656 -5.429688 5.367188 -5.238281 5.234375 -5.03125 C 5.097656 -4.820312 4.929688 -4.597656 4.734375 -4.359375 L 1.953125 -1.03125 L 5.765625 -1.03125 L 5.765625 0 L 0.515625 0 Z M 0.515625 -0.859375 "/></g></g></g><g fill="#faf9f0" fill-opacity="1"><g transform="translate(355.958072, 163.952372)"><g><path d="M 1.203125 -1.671875 L 2.5 -1.15625 L 0.96875 2 L 0.125 1.6875 Z M 1.203125 -1.671875 "/></g></g></g><g fill="#faf9f0" fill-opacity="1"><g transform="translate(359.311591, 163.952372)"><g><path d="M 3.859375 0.109375 C 3.222656 0.109375 2.691406 -0.00390625 2.265625 -0.234375 C 1.835938 -0.472656 1.492188 -0.800781 1.234375 -1.21875 C 0.972656 -1.632812 0.785156 -2.117188 0.671875 -2.671875 C 0.566406 -3.222656 0.515625 -3.816406 0.515625 -4.453125 C 0.515625 -5.140625 0.585938 -5.773438 0.734375 -6.359375 C 0.890625 -6.953125 1.09375 -7.425781 1.34375 -7.78125 C 1.59375 -8.144531 1.910156 -8.453125 2.296875 -8.703125 C 2.679688 -8.953125 3.207031 -9.078125 3.875 -9.078125 C 4.507812 -9.078125 5.035156 -8.976562 5.453125 -8.78125 C 5.878906 -8.582031 6.226562 -8.273438 6.5 -7.859375 C 6.769531 -7.441406 6.957031 -6.941406 7.0625 -6.359375 C 7.175781 -5.773438 7.234375 -5.15625 7.234375 -4.5 C 7.234375 -3.851562 7.175781 -3.25 7.0625 -2.6875 C 6.957031 -2.132812 6.773438 -1.648438 6.515625 -1.234375 C 6.253906 -0.816406 5.90625 -0.488281 5.46875 -0.25 C 5.039062 -0.0078125 4.503906 0.109375 3.859375 0.109375 Z M 3.859375 -0.9375 C 4.316406 -0.9375 4.6875 -1.03125 4.96875 -1.21875 C 5.25 -1.40625 5.460938 -1.660156 5.609375 -1.984375 C 5.753906 -2.304688 5.863281 -2.679688 5.9375 -3.109375 C 6.007812 -3.546875 6.046875 -4.007812 6.046875 -4.5 C 6.046875 -4.96875 6.015625 -5.414062 5.953125 -5.84375 C 5.898438 -6.269531 5.796875 -6.648438 5.640625 -6.984375 C 5.484375 -7.316406 5.257812 -7.578125 4.96875 -7.765625 C 4.6875 -7.960938 4.320312 -8.0625 3.875 -8.0625 C 3.40625 -8.0625 3.035156 -7.960938 2.765625 -7.765625 C 2.492188 -7.578125 2.289062 -7.34375 2.15625 -7.0625 C 2.019531 -6.78125 1.914062 -6.398438 1.84375 -5.921875 C 1.769531 -5.441406 1.734375 -4.96875 1.734375 -4.5 C 1.734375 -4.007812 1.753906 -3.546875 1.796875 -3.109375 C 1.847656 -2.679688 1.945312 -2.304688 2.09375 -1.984375 C 2.25 -1.660156 2.46875 -1.40625 2.75 -1.21875 C 3.03125 -1.03125 3.398438 -0.9375 3.859375 -0.9375 Z M 3.859375 -0.9375 "/></g></g></g><g fill="#faf9f0" fill-opacity="1"><g transform="translate(367.150222, 163.952372)"><g><path d="M 3.859375 0.109375 C 3.222656 0.109375 2.691406 -0.00390625 2.265625 -0.234375 C 1.835938 -0.472656 1.492188 -0.800781 1.234375 -1.21875 C 0.972656 -1.632812 0.785156 -2.117188 0.671875 -2.671875 C 0.566406 -3.222656 0.515625 -3.816406 0.515625 -4.453125 C 0.515625 -5.140625 0.585938 -5.773438 0.734375 -6.359375 C 0.890625 -6.953125 1.09375 -7.425781 1.34375 -7.78125 C 1.59375 -8.144531 1.910156 -8.453125 2.296875 -8.703125 C 2.679688 -8.953125 3.207031 -9.078125 3.875 -9.078125 C 4.507812 -9.078125 5.035156 -8.976562 5.453125 -8.78125 C 5.878906 -8.582031 6.226562 -8.273438 6.5 -7.859375 C 6.769531 -7.441406 6.957031 -6.941406 7.0625 -6.359375 C 7.175781 -5.773438 7.234375 -5.15625 7.234375 -4.5 C 7.234375 -3.851562 7.175781 -3.25 7.0625 -2.6875 C 6.957031 -2.132812 6.773438 -1.648438 6.515625 -1.234375 C 6.253906 -0.816406 5.90625 -0.488281 5.46875 -0.25 C 5.039062 -0.0078125 4.503906 0.109375 3.859375 0.109375 Z M 3.859375 -0.9375 C 4.316406 -0.9375 4.6875 -1.03125 4.96875 -1.21875 C 5.25 -1.40625 5.460938 -1.660156 5.609375 -1.984375 C 5.753906 -2.304688 5.863281 -2.679688 5.9375 -3.109375 C 6.007812 -3.546875 6.046875 -4.007812 6.046875 -4.5 C 6.046875 -4.96875 6.015625 -5.414062 5.953125 -5.84375 C 5.898438 -6.269531 5.796875 -6.648438 5.640625 -6.984375 C 5.484375 -7.316406 5.257812 -7.578125 4.96875 -7.765625 C 4.6875 -7.960938 4.320312 -8.0625 3.875 -8.0625 C 3.40625 -8.0625 3.035156 -7.960938 2.765625 -7.765625 C 2.492188 -7.578125 2.289062 -7.34375 2.15625 -7.0625 C 2.019531 -6.78125 1.914062 -6.398438 1.84375 -5.921875 C 1.769531 -5.441406 1.734375 -4.96875 1.734375 -4.5 C 1.734375 -4.007812 1.753906 -3.546875 1.796875 -3.109375 C 1.847656 -2.679688 1.945312 -2.304688 2.09375 -1.984375 C 2.25 -1.660156 2.46875 -1.40625 2.75 -1.21875 C 3.03125 -1.03125 3.398438 -0.9375 3.859375 -0.9375 Z M 3.859375 -0.9375 "/></g></g></g><g fill="#faf9f0" fill-opacity="1"><g transform="translate(374.988852, 163.952372)"><g><path d="M 3.859375 0.109375 C 3.222656 0.109375 2.691406 -0.00390625 2.265625 -0.234375 C 1.835938 -0.472656 1.492188 -0.800781 1.234375 -1.21875 C 0.972656 -1.632812 0.785156 -2.117188 0.671875 -2.671875 C 0.566406 -3.222656 0.515625 -3.816406 0.515625 -4.453125 C 0.515625 -5.140625 0.585938 -5.773438 0.734375 -6.359375 C 0.890625 -6.953125 1.09375 -7.425781 1.34375 -7.78125 C 1.59375 -8.144531 1.910156 -8.453125 2.296875 -8.703125 C 2.679688 -8.953125 3.207031 -9.078125 3.875 -9.078125 C 4.507812 -9.078125 5.035156 -8.976562 5.453125 -8.78125 C 5.878906 -8.582031 6.226562 -8.273438 6.5 -7.859375 C 6.769531 -7.441406 6.957031 -6.941406 7.0625 -6.359375 C 7.175781 -5.773438 7.234375 -5.15625 7.234375 -4.5 C 7.234375 -3.851562 7.175781 -3.25 7.0625 -2.6875 C 6.957031 -2.132812 6.773438 -1.648438 6.515625 -1.234375 C 6.253906 -0.816406 5.90625 -0.488281 5.46875 -0.25 C 5.039062 -0.0078125 4.503906 0.109375 3.859375 0.109375 Z M 3.859375 -0.9375 C 4.316406 -0.9375 4.6875 -1.03125 4.96875 -1.21875 C 5.25 -1.40625 5.460938 -1.660156 5.609375 -1.984375 C 5.753906 -2.304688 5.863281 -2.679688 5.9375 -3.109375 C 6.007812 -3.546875 6.046875 -4.007812 6.046875 -4.5 C 6.046875 -4.96875 6.015625 -5.414062 5.953125 -5.84375 C 5.898438 -6.269531 5.796875 -6.648438 5.640625 -6.984375 C 5.484375 -7.316406 5.257812 -7.578125 4.96875 -7.765625 C 4.6875 -7.960938 4.320312 -8.0625 3.875 -8.0625 C 3.40625 -8.0625 3.035156 -7.960938 2.765625 -7.765625 C 2.492188 -7.578125 2.289062 -7.34375 2.15625 -7.0625 C 2.019531 -6.78125 1.914062 -6.398438 1.84375 -5.921875 C 1.769531 -5.441406 1.734375 -4.96875 1.734375 -4.5 C 1.734375 -4.007812 1.753906 -3.546875 1.796875 -3.109375 C 1.847656 -2.679688 1.945312 -2.304688 2.09375 -1.984375 C 2.25 -1.660156 2.46875 -1.40625 2.75 -1.21875 C 3.03125 -1.03125 3.398438 -0.9375 3.859375 -0.9375 Z M 3.859375 -0.9375 "/></g></g></g><g fill="#faf9f0" fill-opacity="1"><g transform="translate(382.826555, 163.952372)"><g><path d="M 0 0 Z M 0 0 "/></g></g></g><g fill="#faf9f0" fill-opacity="1"><g transform="translate(352.025025, 249.154726)"><g><path d="M 1.421875 -1.015625 L 2.296875 -1.015625 L 2.296875 -7.5625 L 0.484375 -6.5625 L 0.484375 -7.796875 L 2.96875 -9.1875 L 3.4375 -9.1875 L 3.4375 -1.015625 L 4.328125 -1.015625 L 4.328125 0 L 1.421875 0 Z M 1.421875 -1.015625 "/></g></g></g><g fill="#faf9f0" fill-opacity="1"><g transform="translate(357.081826, 249.154726)"><g><path d="M 1.203125 -1.671875 L 2.5 -1.15625 L 0.96875 2 L 0.125 1.6875 Z M 1.203125 -1.671875 "/></g></g></g><g fill="#faf9f0" fill-opacity="1"><g transform="translate(360.435345, 249.154726)"><g><path d="M 1.875 -5.265625 C 2.09375 -5.421875 2.316406 -5.535156 2.546875 -5.609375 C 2.773438 -5.679688 3.039062 -5.71875 3.34375 -5.71875 C 3.78125 -5.71875 4.179688 -5.640625 4.546875 -5.484375 C 4.921875 -5.328125 5.238281 -5.113281 5.5 -4.84375 C 5.769531 -4.582031 5.976562 -4.273438 6.125 -3.921875 C 6.28125 -3.566406 6.359375 -3.191406 6.359375 -2.796875 C 6.359375 -2.390625 6.285156 -2.003906 6.140625 -1.640625 C 5.992188 -1.285156 5.785156 -0.972656 5.515625 -0.703125 C 5.242188 -0.429688 4.921875 -0.210938 4.546875 -0.046875 C 4.171875 0.109375 3.753906 0.1875 3.296875 0.1875 C 2.941406 0.1875 2.613281 0.140625 2.3125 0.046875 C 2.007812 -0.046875 1.734375 -0.175781 1.484375 -0.34375 C 1.242188 -0.507812 1.035156 -0.707031 0.859375 -0.9375 C 0.679688 -1.175781 0.539062 -1.429688 0.4375 -1.703125 L 1.40625 -2.1875 C 1.46875 -1.988281 1.554688 -1.800781 1.671875 -1.625 C 1.796875 -1.457031 1.941406 -1.3125 2.109375 -1.1875 C 2.273438 -1.0625 2.457031 -0.960938 2.65625 -0.890625 C 2.851562 -0.828125 3.066406 -0.796875 3.296875 -0.796875 C 3.578125 -0.796875 3.835938 -0.847656 4.078125 -0.953125 C 4.328125 -1.054688 4.539062 -1.195312 4.71875 -1.375 C 4.894531 -1.5625 5.035156 -1.773438 5.140625 -2.015625 C 5.242188 -2.253906 5.296875 -2.515625 5.296875 -2.796875 C 5.296875 -3.066406 5.242188 -3.320312 5.140625 -3.5625 C 5.035156 -3.800781 4.890625 -4.007812 4.703125 -4.1875 C 4.523438 -4.363281 4.316406 -4.5 4.078125 -4.59375 C 3.835938 -4.695312 3.578125 -4.75 3.296875 -4.75 C 2.984375 -4.75 2.691406 -4.691406 2.421875 -4.578125 C 2.160156 -4.460938 1.941406 -4.3125 1.765625 -4.125 L 0.890625 -4.265625 L 0.890625 -8.9375 L 5.9375 -8.9375 L 5.9375 -7.96875 L 1.875 -7.96875 Z M 1.875 -5.265625 "/></g></g></g><g fill="#faf9f0" fill-opacity="1"><g transform="translate(367.148278, 249.154726)"><g><path d="M 3.859375 0.109375 C 3.222656 0.109375 2.691406 -0.00390625 2.265625 -0.234375 C 1.835938 -0.472656 1.492188 -0.800781 1.234375 -1.21875 C 0.972656 -1.632812 0.785156 -2.117188 0.671875 -2.671875 C 0.566406 -3.222656 0.515625 -3.816406 0.515625 -4.453125 C 0.515625 -5.140625 0.585938 -5.773438 0.734375 -6.359375 C 0.890625 -6.953125 1.09375 -7.425781 1.34375 -7.78125 C 1.59375 -8.144531 1.910156 -8.453125 2.296875 -8.703125 C 2.679688 -8.953125 3.207031 -9.078125 3.875 -9.078125 C 4.507812 -9.078125 5.035156 -8.976562 5.453125 -8.78125 C 5.878906 -8.582031 6.226562 -8.273438 6.5 -7.859375 C 6.769531 -7.441406 6.957031 -6.941406 7.0625 -6.359375 C 7.175781 -5.773438 7.234375 -5.15625 7.234375 -4.5 C 7.234375 -3.851562 7.175781 -3.25 7.0625 -2.6875 C 6.957031 -2.132812 6.773438 -1.648438 6.515625 -1.234375 C 6.253906 -0.816406 5.90625 -0.488281 5.46875 -0.25 C 5.039062 -0.0078125 4.503906 0.109375 3.859375 0.109375 Z M 3.859375 -0.9375 C 4.316406 -0.9375 4.6875 -1.03125 4.96875 -1.21875 C 5.25 -1.40625 5.460938 -1.660156 5.609375 -1.984375 C 5.753906 -2.304688 5.863281 -2.679688 5.9375 -3.109375 C 6.007812 -3.546875 6.046875 -4.007812 6.046875 -4.5 C 6.046875 -4.96875 6.015625 -5.414062 5.953125 -5.84375 C 5.898438 -6.269531 5.796875 -6.648438 5.640625 -6.984375 C 5.484375 -7.316406 5.257812 -7.578125 4.96875 -7.765625 C 4.6875 -7.960938 4.320312 -8.0625 3.875 -8.0625 C 3.40625 -8.0625 3.035156 -7.960938 2.765625 -7.765625 C 2.492188 -7.578125 2.289062 -7.34375 2.15625 -7.0625 C 2.019531 -6.78125 1.914062 -6.398438 1.84375 -5.921875 C 1.769531 -5.441406 1.734375 -4.96875 1.734375 -4.5 C 1.734375 -4.007812 1.753906 -3.546875 1.796875 -3.109375 C 1.847656 -2.679688 1.945312 -2.304688 2.09375 -1.984375 C 2.25 -1.660156 2.46875 -1.40625 2.75 -1.21875 C 3.03125 -1.03125 3.398438 -0.9375 3.859375 -0.9375 Z M 3.859375 -0.9375 "/></g></g></g><g fill="#faf9f0" fill-opacity="1"><g transform="translate(374.986908, 249.154726)"><g><path d="M 3.859375 0.109375 C 3.222656 0.109375 2.691406 -0.00390625 2.265625 -0.234375 C 1.835938 -0.472656 1.492188 -0.800781 1.234375 -1.21875 C 0.972656 -1.632812 0.785156 -2.117188 0.671875 -2.671875 C 0.566406 -3.222656 0.515625 -3.816406 0.515625 -4.453125 C 0.515625 -5.140625 0.585938 -5.773438 0.734375 -6.359375 C 0.890625 -6.953125 1.09375 -7.425781 1.34375 -7.78125 C 1.59375 -8.144531 1.910156 -8.453125 2.296875 -8.703125 C 2.679688 -8.953125 3.207031 -9.078125 3.875 -9.078125 C 4.507812 -9.078125 5.035156 -8.976562 5.453125 -8.78125 C 5.878906 -8.582031 6.226562 -8.273438 6.5 -7.859375 C 6.769531 -7.441406 6.957031 -6.941406 7.0625 -6.359375 C 7.175781 -5.773438 7.234375 -5.15625 7.234375 -4.5 C 7.234375 -3.851562 7.175781 -3.25 7.0625 -2.6875 C 6.957031 -2.132812 6.773438 -1.648438 6.515625 -1.234375 C 6.253906 -0.816406 5.90625 -0.488281 5.46875 -0.25 C 5.039062 -0.0078125 4.503906 0.109375 3.859375 0.109375 Z M 3.859375 -0.9375 C 4.316406 -0.9375 4.6875 -1.03125 4.96875 -1.21875 C 5.25 -1.40625 5.460938 -1.660156 5.609375 -1.984375 C 5.753906 -2.304688 5.863281 -2.679688 5.9375 -3.109375 C 6.007812 -3.546875 6.046875 -4.007812 6.046875 -4.5 C 6.046875 -4.96875 6.015625 -5.414062 5.953125 -5.84375 C 5.898438 -6.269531 5.796875 -6.648438 5.640625 -6.984375 C 5.484375 -7.316406 5.257812 -7.578125 4.96875 -7.765625 C 4.6875 -7.960938 4.320312 -8.0625 3.875 -8.0625 C 3.40625 -8.0625 3.035156 -7.960938 2.765625 -7.765625 C 2.492188 -7.578125 2.289062 -7.34375 2.15625 -7.0625 C 2.019531 -6.78125 1.914062 -6.398438 1.84375 -5.921875 C 1.769531 -5.441406 1.734375 -4.96875 1.734375 -4.5 C 1.734375 -4.007812 1.753906 -3.546875 1.796875 -3.109375 C 1.847656 -2.679688 1.945312 -2.304688 2.09375 -1.984375 C 2.25 -1.660156 2.46875 -1.40625 2.75 -1.21875 C 3.03125 -1.03125 3.398438 -0.9375 3.859375 -0.9375 Z M 3.859375 -0.9375 "/></g></g></g><g fill="#faf9f0" fill-opacity="1"><g transform="translate(382.821899, 249.154726)"><g><path d="M 0 0 Z M 0 0 "/></g></g></g><g fill="#faf9f0" fill-opacity="1"><g transform="translate(350.900025, 334.357096)"><g><path d="M 1.421875 -1.015625 L 2.296875 -1.015625 L 2.296875 -7.5625 L 0.484375 -6.5625 L 0.484375 -7.796875 L 2.96875 -9.1875 L 3.4375 -9.1875 L 3.4375 -1.015625 L 4.328125 -1.015625 L 4.328125 0 L 1.421875 0 Z M 1.421875 -1.015625 "/></g></g></g><g fill="#faf9f0" fill-opacity="1"><g transform="translate(355.956826, 334.357096)"><g><path d="M 1.203125 -1.671875 L 2.5 -1.15625 L 0.96875 2 L 0.125 1.6875 Z M 1.203125 -1.671875 "/></g></g></g><g fill="#faf9f0" fill-opacity="1"><g transform="translate(359.310345, 334.357096)"><g><path d="M 3.859375 0.109375 C 3.222656 0.109375 2.691406 -0.00390625 2.265625 -0.234375 C 1.835938 -0.472656 1.492188 -0.800781 1.234375 -1.21875 C 0.972656 -1.632812 0.785156 -2.117188 0.671875 -2.671875 C 0.566406 -3.222656 0.515625 -3.816406 0.515625 -4.453125 C 0.515625 -5.140625 0.585938 -5.773438 0.734375 -6.359375 C 0.890625 -6.953125 1.09375 -7.425781 1.34375 -7.78125 C 1.59375 -8.144531 1.910156 -8.453125 2.296875 -8.703125 C 2.679688 -8.953125 3.207031 -9.078125 3.875 -9.078125 C 4.507812 -9.078125 5.035156 -8.976562 5.453125 -8.78125 C 5.878906 -8.582031 6.226562 -8.273438 6.5 -7.859375 C 6.769531 -7.441406 6.957031 -6.941406 7.0625 -6.359375 C 7.175781 -5.773438 7.234375 -5.15625 7.234375 -4.5 C 7.234375 -3.851562 7.175781 -3.25 7.0625 -2.6875 C 6.957031 -2.132812 6.773438 -1.648438 6.515625 -1.234375 C 6.253906 -0.816406 5.90625 -0.488281 5.46875 -0.25 C 5.039062 -0.0078125 4.503906 0.109375 3.859375 0.109375 Z M 3.859375 -0.9375 C 4.316406 -0.9375 4.6875 -1.03125 4.96875 -1.21875 C 5.25 -1.40625 5.460938 -1.660156 5.609375 -1.984375 C 5.753906 -2.304688 5.863281 -2.679688 5.9375 -3.109375 C 6.007812 -3.546875 6.046875 -4.007812 6.046875 -4.5 C 6.046875 -4.96875 6.015625 -5.414062 5.953125 -5.84375 C 5.898438 -6.269531 5.796875 -6.648438 5.640625 -6.984375 C 5.484375 -7.316406 5.257812 -7.578125 4.96875 -7.765625 C 4.6875 -7.960938 4.320312 -8.0625 3.875 -8.0625 C 3.40625 -8.0625 3.035156 -7.960938 2.765625 -7.765625 C 2.492188 -7.578125 2.289062 -7.34375 2.15625 -7.0625 C 2.019531 -6.78125 1.914062 -6.398438 1.84375 -5.921875 C 1.769531 -5.441406 1.734375 -4.96875 1.734375 -4.5 C 1.734375 -4.007812 1.753906 -3.546875 1.796875 -3.109375 C 1.847656 -2.679688 1.945312 -2.304688 2.09375 -1.984375 C 2.25 -1.660156 2.46875 -1.40625 2.75 -1.21875 C 3.03125 -1.03125 3.398438 -0.9375 3.859375 -0.9375 Z M 3.859375 -0.9375 "/></g></g></g><g fill="#faf9f0" fill-opacity="1"><g transform="translate(367.148976, 334.357096)"><g><path d="M 3.859375 0.109375 C 3.222656 0.109375 2.691406 -0.00390625 2.265625 -0.234375 C 1.835938 -0.472656 1.492188 -0.800781 1.234375 -1.21875 C 0.972656 -1.632812 0.785156 -2.117188 0.671875 -2.671875 C 0.566406 -3.222656 0.515625 -3.816406 0.515625 -4.453125 C 0.515625 -5.140625 0.585938 -5.773438 0.734375 -6.359375 C 0.890625 -6.953125 1.09375 -7.425781 1.34375 -7.78125 C 1.59375 -8.144531 1.910156 -8.453125 2.296875 -8.703125 C 2.679688 -8.953125 3.207031 -9.078125 3.875 -9.078125 C 4.507812 -9.078125 5.035156 -8.976562 5.453125 -8.78125 C 5.878906 -8.582031 6.226562 -8.273438 6.5 -7.859375 C 6.769531 -7.441406 6.957031 -6.941406 7.0625 -6.359375 C 7.175781 -5.773438 7.234375 -5.15625 7.234375 -4.5 C 7.234375 -3.851562 7.175781 -3.25 7.0625 -2.6875 C 6.957031 -2.132812 6.773438 -1.648438 6.515625 -1.234375 C 6.253906 -0.816406 5.90625 -0.488281 5.46875 -0.25 C 5.039062 -0.0078125 4.503906 0.109375 3.859375 0.109375 Z M 3.859375 -0.9375 C 4.316406 -0.9375 4.6875 -1.03125 4.96875 -1.21875 C 5.25 -1.40625 5.460938 -1.660156 5.609375 -1.984375 C 5.753906 -2.304688 5.863281 -2.679688 5.9375 -3.109375 C 6.007812 -3.546875 6.046875 -4.007812 6.046875 -4.5 C 6.046875 -4.96875 6.015625 -5.414062 5.953125 -5.84375 C 5.898438 -6.269531 5.796875 -6.648438 5.640625 -6.984375 C 5.484375 -7.316406 5.257812 -7.578125 4.96875 -7.765625 C 4.6875 -7.960938 4.320312 -8.0625 3.875 -8.0625 C 3.40625 -8.0625 3.035156 -7.960938 2.765625 -7.765625 C 2.492188 -7.578125 2.289062 -7.34375 2.15625 -7.0625 C 2.019531 -6.78125 1.914062 -6.398438 1.84375 -5.921875 C 1.769531 -5.441406 1.734375 -4.96875 1.734375 -4.5 C 1.734375 -4.007812 1.753906 -3.546875 1.796875 -3.109375 C 1.847656 -2.679688 1.945312 -2.304688 2.09375 -1.984375 C 2.25 -1.660156 2.46875 -1.40625 2.75 -1.21875 C 3.03125 -1.03125 3.398438 -0.9375 3.859375 -0.9375 Z M 3.859375 -0.9375 "/></g></g></g><g fill="#faf9f0" fill-opacity="1"><g transform="translate(374.987606, 334.357096)"><g><path d="M 3.859375 0.109375 C 3.222656 0.109375 2.691406 -0.00390625 2.265625 -0.234375 C 1.835938 -0.472656 1.492188 -0.800781 1.234375 -1.21875 C 0.972656 -1.632812 0.785156 -2.117188 0.671875 -2.671875 C 0.566406 -3.222656 0.515625 -3.816406 0.515625 -4.453125 C 0.515625 -5.140625 0.585938 -5.773438 0.734375 -6.359375 C 0.890625 -6.953125 1.09375 -7.425781 1.34375 -7.78125 C 1.59375 -8.144531 1.910156 -8.453125 2.296875 -8.703125 C 2.679688 -8.953125 3.207031 -9.078125 3.875 -9.078125 C 4.507812 -9.078125 5.035156 -8.976562 5.453125 -8.78125 C 5.878906 -8.582031 6.226562 -8.273438 6.5 -7.859375 C 6.769531 -7.441406 6.957031 -6.941406 7.0625 -6.359375 C 7.175781 -5.773438 7.234375 -5.15625 7.234375 -4.5 C 7.234375 -3.851562 7.175781 -3.25 7.0625 -2.6875 C 6.957031 -2.132812 6.773438 -1.648438 6.515625 -1.234375 C 6.253906 -0.816406 5.90625 -0.488281 5.46875 -0.25 C 5.039062 -0.0078125 4.503906 0.109375 3.859375 0.109375 Z M 3.859375 -0.9375 C 4.316406 -0.9375 4.6875 -1.03125 4.96875 -1.21875 C 5.25 -1.40625 5.460938 -1.660156 5.609375 -1.984375 C 5.753906 -2.304688 5.863281 -2.679688 5.9375 -3.109375 C 6.007812 -3.546875 6.046875 -4.007812 6.046875 -4.5 C 6.046875 -4.96875 6.015625 -5.414062 5.953125 -5.84375 C 5.898438 -6.269531 5.796875 -6.648438 5.640625 -6.984375 C 5.484375 -7.316406 5.257812 -7.578125 4.96875 -7.765625 C 4.6875 -7.960938 4.320312 -8.0625 3.875 -8.0625 C 3.40625 -8.0625 3.035156 -7.960938 2.765625 -7.765625 C 2.492188 -7.578125 2.289062 -7.34375 2.15625 -7.0625 C 2.019531 -6.78125 1.914062 -6.398438 1.84375 -5.921875 C 1.769531 -5.441406 1.734375 -4.96875 1.734375 -4.5 C 1.734375 -4.007812 1.753906 -3.546875 1.796875 -3.109375 C 1.847656 -2.679688 1.945312 -2.304688 2.09375 -1.984375 C 2.25 -1.660156 2.46875 -1.40625 2.75 -1.21875 C 3.03125 -1.03125 3.398438 -0.9375 3.859375 -0.9375 Z M 3.859375 -0.9375 "/></g></g></g><g fill="#faf9f0" fill-opacity="1"><g transform="translate(382.821899, 334.357096)"><g><path d="M 0 0 Z M 0 0 "/></g></g></g><g fill="#faf9f0" fill-opacity="1"><g transform="translate(360.437505, 419.559435)"><g><path d="M 1.875 -5.265625 C 2.09375 -5.421875 2.316406 -5.535156 2.546875 -5.609375 C 2.773438 -5.679688 3.039062 -5.71875 3.34375 -5.71875 C 3.78125 -5.71875 4.179688 -5.640625 4.546875 -5.484375 C 4.921875 -5.328125 5.238281 -5.113281 5.5 -4.84375 C 5.769531 -4.582031 5.976562 -4.273438 6.125 -3.921875 C 6.28125 -3.566406 6.359375 -3.191406 6.359375 -2.796875 C 6.359375 -2.390625 6.285156 -2.003906 6.140625 -1.640625 C 5.992188 -1.285156 5.785156 -0.972656 5.515625 -0.703125 C 5.242188 -0.429688 4.921875 -0.210938 4.546875 -0.046875 C 4.171875 0.109375 3.753906 0.1875 3.296875 0.1875 C 2.941406 0.1875 2.613281 0.140625 2.3125 0.046875 C 2.007812 -0.046875 1.734375 -0.175781 1.484375 -0.34375 C 1.242188 -0.507812 1.035156 -0.707031 0.859375 -0.9375 C 0.679688 -1.175781 0.539062 -1.429688 0.4375 -1.703125 L 1.40625 -2.1875 C 1.46875 -1.988281 1.554688 -1.800781 1.671875 -1.625 C 1.796875 -1.457031 1.941406 -1.3125 2.109375 -1.1875 C 2.273438 -1.0625 2.457031 -0.960938 2.65625 -0.890625 C 2.851562 -0.828125 3.066406 -0.796875 3.296875 -0.796875 C 3.578125 -0.796875 3.835938 -0.847656 4.078125 -0.953125 C 4.328125 -1.054688 4.539062 -1.195312 4.71875 -1.375 C 4.894531 -1.5625 5.035156 -1.773438 5.140625 -2.015625 C 5.242188 -2.253906 5.296875 -2.515625 5.296875 -2.796875 C 5.296875 -3.066406 5.242188 -3.320312 5.140625 -3.5625 C 5.035156 -3.800781 4.890625 -4.007812 4.703125 -4.1875 C 4.523438 -4.363281 4.316406 -4.5 4.078125 -4.59375 C 3.835938 -4.695312 3.578125 -4.75 3.296875 -4.75 C 2.984375 -4.75 2.691406 -4.691406 2.421875 -4.578125 C 2.160156 -4.460938 1.941406 -4.3125 1.765625 -4.125 L 0.890625 -4.265625 L 0.890625 -8.9375 L 5.9375 -8.9375 L 5.9375 -7.96875 L 1.875 -7.96875 Z M 1.875 -5.265625 "/></g></g></g><g fill="#faf9f0" fill-opacity="1"><g transform="translate(367.150437, 419.559435)"><g><path d="M 3.859375 0.109375 C 3.222656 0.109375 2.691406 -0.00390625 2.265625 -0.234375 C 1.835938 -0.472656 1.492188 -0.800781 1.234375 -1.21875 C 0.972656 -1.632812 0.785156 -2.117188 0.671875 -2.671875 C 0.566406 -3.222656 0.515625 -3.816406 0.515625 -4.453125 C 0.515625 -5.140625 0.585938 -5.773438 0.734375 -6.359375 C 0.890625 -6.953125 1.09375 -7.425781 1.34375 -7.78125 C 1.59375 -8.144531 1.910156 -8.453125 2.296875 -8.703125 C 2.679688 -8.953125 3.207031 -9.078125 3.875 -9.078125 C 4.507812 -9.078125 5.035156 -8.976562 5.453125 -8.78125 C 5.878906 -8.582031 6.226562 -8.273438 6.5 -7.859375 C 6.769531 -7.441406 6.957031 -6.941406 7.0625 -6.359375 C 7.175781 -5.773438 7.234375 -5.15625 7.234375 -4.5 C 7.234375 -3.851562 7.175781 -3.25 7.0625 -2.6875 C 6.957031 -2.132812 6.773438 -1.648438 6.515625 -1.234375 C 6.253906 -0.816406 5.90625 -0.488281 5.46875 -0.25 C 5.039062 -0.0078125 4.503906 0.109375 3.859375 0.109375 Z M 3.859375 -0.9375 C 4.316406 -0.9375 4.6875 -1.03125 4.96875 -1.21875 C 5.25 -1.40625 5.460938 -1.660156 5.609375 -1.984375 C 5.753906 -2.304688 5.863281 -2.679688 5.9375 -3.109375 C 6.007812 -3.546875 6.046875 -4.007812 6.046875 -4.5 C 6.046875 -4.96875 6.015625 -5.414062 5.953125 -5.84375 C 5.898438 -6.269531 5.796875 -6.648438 5.640625 -6.984375 C 5.484375 -7.316406 5.257812 -7.578125 4.96875 -7.765625 C 4.6875 -7.960938 4.320312 -8.0625 3.875 -8.0625 C 3.40625 -8.0625 3.035156 -7.960938 2.765625 -7.765625 C 2.492188 -7.578125 2.289062 -7.34375 2.15625 -7.0625 C 2.019531 -6.78125 1.914062 -6.398438 1.84375 -5.921875 C 1.769531 -5.441406 1.734375 -4.96875 1.734375 -4.5 C 1.734375 -4.007812 1.753906 -3.546875 1.796875 -3.109375 C 1.847656 -2.679688 1.945312 -2.304688 2.09375 -1.984375 C 2.25 -1.660156 2.46875 -1.40625 2.75 -1.21875 C 3.03125 -1.03125 3.398438 -0.9375 3.859375 -0.9375 Z M 3.859375 -0.9375 "/></g></g></g><g fill="#faf9f0" fill-opacity="1"><g transform="translate(374.989068, 419.559435)"><g><path d="M 3.859375 0.109375 C 3.222656 0.109375 2.691406 -0.00390625 2.265625 -0.234375 C 1.835938 -0.472656 1.492188 -0.800781 1.234375 -1.21875 C 0.972656 -1.632812 0.785156 -2.117188 0.671875 -2.671875 C 0.566406 -3.222656 0.515625 -3.816406 0.515625 -4.453125 C 0.515625 -5.140625 0.585938 -5.773438 0.734375 -6.359375 C 0.890625 -6.953125 1.09375 -7.425781 1.34375 -7.78125 C 1.59375 -8.144531 1.910156 -8.453125 2.296875 -8.703125 C 2.679688 -8.953125 3.207031 -9.078125 3.875 -9.078125 C 4.507812 -9.078125 5.035156 -8.976562 5.453125 -8.78125 C 5.878906 -8.582031 6.226562 -8.273438 6.5 -7.859375 C 6.769531 -7.441406 6.957031 -6.941406 7.0625 -6.359375 C 7.175781 -5.773438 7.234375 -5.15625 7.234375 -4.5 C 7.234375 -3.851562 7.175781 -3.25 7.0625 -2.6875 C 6.957031 -2.132812 6.773438 -1.648438 6.515625 -1.234375 C 6.253906 -0.816406 5.90625 -0.488281 5.46875 -0.25 C 5.039062 -0.0078125 4.503906 0.109375 3.859375 0.109375 Z M 3.859375 -0.9375 C 4.316406 -0.9375 4.6875 -1.03125 4.96875 -1.21875 C 5.25 -1.40625 5.460938 -1.660156 5.609375 -1.984375 C 5.753906 -2.304688 5.863281 -2.679688 5.9375 -3.109375 C 6.007812 -3.546875 6.046875 -4.007812 6.046875 -4.5 C 6.046875 -4.96875 6.015625 -5.414062 5.953125 -5.84375 C 5.898438 -6.269531 5.796875 -6.648438 5.640625 -6.984375 C 5.484375 -7.316406 5.257812 -7.578125 4.96875 -7.765625 C 4.6875 -7.960938 4.320312 -8.0625 3.875 -8.0625 C 3.40625 -8.0625 3.035156 -7.960938 2.765625 -7.765625 C 2.492188 -7.578125 2.289062 -7.34375 2.15625 -7.0625 C 2.019531 -6.78125 1.914062 -6.398438 1.84375 -5.921875 C 1.769531 -5.441406 1.734375 -4.96875 1.734375 -4.5 C 1.734375 -4.007812 1.753906 -3.546875 1.796875 -3.109375 C 1.847656 -2.679688 1.945312 -2.304688 2.09375 -1.984375 C 2.25 -1.660156 2.46875 -1.40625 2.75 -1.21875 C 3.03125 -1.03125 3.398438 -0.9375 3.859375 -0.9375 Z M 3.859375 -0.9375 "/></g></g></g><g fill="#faf9f0" fill-opacity="1"><g transform="translate(382.820317, 419.559435)"><g><path d="M 0 0 Z M 0 0 "/></g></g></g><g fill="#faf9f0" fill-opacity="1"><g transform="translate(374.987476, 504.761831)"><g><path d="M 3.859375 0.109375 C 3.222656 0.109375 2.691406 -0.00390625 2.265625 -0.234375 C 1.835938 -0.472656 1.492188 -0.800781 1.234375 -1.21875 C 0.972656 -1.632812 0.785156 -2.117188 0.671875 -2.671875 C 0.566406 -3.222656 0.515625 -3.816406 0.515625 -4.453125 C 0.515625 -5.140625 0.585938 -5.773438 0.734375 -6.359375 C 0.890625 -6.953125 1.09375 -7.425781 1.34375 -7.78125 C 1.59375 -8.144531 1.910156 -8.453125 2.296875 -8.703125 C 2.679688 -8.953125 3.207031 -9.078125 3.875 -9.078125 C 4.507812 -9.078125 5.035156 -8.976562 5.453125 -8.78125 C 5.878906 -8.582031 6.226562 -8.273438 6.5 -7.859375 C 6.769531 -7.441406 6.957031 -6.941406 7.0625 -6.359375 C 7.175781 -5.773438 7.234375 -5.15625 7.234375 -4.5 C 7.234375 -3.851562 7.175781 -3.25 7.0625 -2.6875 C 6.957031 -2.132812 6.773438 -1.648438 6.515625 -1.234375 C 6.253906 -0.816406 5.90625 -0.488281 5.46875 -0.25 C 5.039062 -0.0078125 4.503906 0.109375 3.859375 0.109375 Z M 3.859375 -0.9375 C 4.316406 -0.9375 4.6875 -1.03125 4.96875 -1.21875 C 5.25 -1.40625 5.460938 -1.660156 5.609375 -1.984375 C 5.753906 -2.304688 5.863281 -2.679688 5.9375 -3.109375 C 6.007812 -3.546875 6.046875 -4.007812 6.046875 -4.5 C 6.046875 -4.96875 6.015625 -5.414062 5.953125 -5.84375 C 5.898438 -6.269531 5.796875 -6.648438 5.640625 -6.984375 C 5.484375 -7.316406 5.257812 -7.578125 4.96875 -7.765625 C 4.6875 -7.960938 4.320312 -8.0625 3.875 -8.0625 C 3.40625 -8.0625 3.035156 -7.960938 2.765625 -7.765625 C 2.492188 -7.578125 2.289062 -7.34375 2.15625 -7.0625 C 2.019531 -6.78125 1.914062 -6.398438 1.84375 -5.921875 C 1.769531 -5.441406 1.734375 -4.96875 1.734375 -4.5 C 1.734375 -4.007812 1.753906 -3.546875 1.796875 -3.109375 C 1.847656 -2.679688 1.945312 -2.304688 2.09375 -1.984375 C 2.25 -1.660156 2.46875 -1.40625 2.75 -1.21875 C 3.03125 -1.03125 3.398438 -0.9375 3.859375 -0.9375 Z M 3.859375 -0.9375 "/></g></g></g><g fill="#faf9f0" fill-opacity="1"><g transform="translate(382.8156, 504.761831)"><g><path d="M 0 0 Z M 0 0 "/></g></g></g><g clip-path="url(#e1ce6f88cc)"><g clip-path="url(#ce8148c094)"><path fill="#ff5722" d="M 432.242188 155.941406 L 706.742188 155.941406 L 706.742188 359.191406 L 432.242188 359.191406 Z M 432.242188 155.941406 " fill-opacity="1" fill-rule="nonzero"/></g></g><g clip-path="url(#f760586711)"><g clip-path="url(#14521a5754)"><path fill="#ff5722" d="M 432.242188 155.941406 L 706.742188 155.941406 L 706.742188 359.191406 L 432.242188 359.191406 Z M 432.242188 155.941406 " fill-opacity="1" fill-rule="nonzero"/></g></g><g clip-path="url(#e95a1cf169)"><g clip-path="url(#bf6e5c4c37)"><path fill="#ff5722" d="M 432.242188 155.941406 L 706.742188 155.941406 L 706.742188 359.191406 L 432.242188 359.191406 Z M 432.242188 155.941406 " fill-opacity="1" fill-rule="nonzero"/></g></g><g fill="#ff5722" fill-opacity="1"><g transform="translate(41.249998, 180.181829)"><g><path d="M 6 -52.90625 L 16.796875 -52.90625 L 16.796875 -41.5 L 6 -41.5 Z M 6 -21 L 16.796875 -21 L 16.796875 -9.59375 L 6 -9.59375 Z M 6 -21 "/></g></g></g><g fill="#ff5722" fill-opacity="1"><g transform="translate(65.94924, 180.181829)"><g><path d="M 2.90625 12.203125 C 5.695312 12.128906 7.773438 10.191406 9.140625 6.390625 C 10.515625 2.597656 11.367188 -2.046875 11.703125 -7.546875 C 12.035156 -13.046875 12.203125 -20.128906 12.203125 -28.796875 L 12.203125 -35.796875 C 12.203125 -43.867188 12.015625 -50.570312 11.640625 -55.90625 C 11.273438 -61.238281 10.410156 -65.671875 9.046875 -69.203125 C 7.679688 -72.734375 5.632812 -74.53125 2.90625 -74.59375 L 2.90625 -81.703125 C 8.90625 -81.703125 13.320312 -79.367188 16.15625 -74.703125 C 18.988281 -70.035156 20.753906 -64.300781 21.453125 -57.5 C 22.148438 -50.695312 22.5 -41.960938 22.5 -31.296875 C 22.5 -20.566406 22.148438 -11.800781 21.453125 -5 C 20.753906 1.800781 18.988281 7.550781 16.15625 12.25 C 13.320312 16.945312 8.90625 19.332031 2.90625 19.40625 Z M 2.90625 12.203125 "/></g></g></g><g fill="#121435" fill-opacity="1"><g transform="translate(39.749998, 454.500001)"><g><path d="M 6.578125 -2.015625 L 7.6875 -2.015625 L 7.1875 -3.625 L 3.765625 -3.625 L 3.25 -2.015625 L 4.4375 -2.015625 L 4.4375 0 L 0.203125 0 L 0.203125 -2.015625 L 1.03125 -2.015625 L 4.078125 -11.171875 L 7.03125 -11.171875 L 10.015625 -2.015625 L 10.8125 -2.015625 L 10.8125 0 L 6.578125 0 Z M 4.34375 -5.515625 L 6.59375 -5.515625 L 5.46875 -9.140625 Z M 4.34375 -5.515625 "/></g></g></g><g fill="#121435" fill-opacity="1"><g transform="translate(52.23951, 454.500001)"><g><path d="M 6.34375 -11.171875 L 11.125 -11.171875 L 11.125 -9.140625 L 10.125 -9.140625 L 7.140625 0 L 4.125 0 L 1.21875 -9.140625 L 0.140625 -9.140625 L 0.140625 -11.171875 L 4.9375 -11.171875 L 4.9375 -9.140625 L 3.75 -9.140625 L 5.6875 -2.8125 L 7.625 -9.140625 L 6.34375 -9.140625 Z M 6.34375 -11.171875 "/></g></g></g><g fill="#121435" fill-opacity="1"><g transform="translate(65.016223, 454.500001)"><g><path d="M 8.9375 0 L 8.9375 -1.921875 C 8.625 -1.378906 8.320312 -0.984375 8.03125 -0.734375 C 7.75 -0.484375 7.421875 -0.28125 7.046875 -0.125 C 6.679688 0.0195312 6.195312 0.09375 5.59375 0.09375 C 5.28125 0.0820312 4.972656 0.046875 4.671875 -0.015625 C 4.367188 -0.0859375 4.070312 -0.179688 3.78125 -0.296875 C 3.5 -0.421875 3.222656 -0.566406 2.953125 -0.734375 C 2.679688 -0.898438 2.4375 -1.09375 2.21875 -1.3125 C 1.664062 -1.863281 1.238281 -2.5 0.9375 -3.21875 C 0.632812 -3.945312 0.484375 -4.738281 0.484375 -5.59375 C 0.484375 -6.125 0.546875 -6.632812 0.671875 -7.125 C 0.804688 -7.613281 0.988281 -8.070312 1.21875 -8.5 C 1.445312 -8.925781 1.722656 -9.316406 2.046875 -9.671875 C 2.378906 -10.023438 2.742188 -10.328125 3.140625 -10.578125 C 3.546875 -10.828125 3.976562 -11.019531 4.4375 -11.15625 C 4.894531 -11.289062 5.378906 -11.359375 5.890625 -11.359375 C 6.472656 -11.359375 6.976562 -11.28125 7.40625 -11.125 C 7.832031 -10.976562 8.289062 -10.691406 8.78125 -10.265625 L 10.421875 -10.265625 L 10.421875 -7.78125 L 8.15625 -7.78125 C 7.925781 -8.125 7.710938 -8.375 7.515625 -8.53125 C 7.316406 -8.6875 7.097656 -8.816406 6.859375 -8.921875 C 6.628906 -9.023438 6.304688 -9.078125 5.890625 -9.078125 C 5.472656 -9.078125 5.085938 -8.984375 4.734375 -8.796875 C 4.378906 -8.609375 4.070312 -8.351562 3.8125 -8.03125 C 3.5625 -7.71875 3.363281 -7.347656 3.21875 -6.921875 C 3.070312 -6.492188 3 -6.050781 3 -5.59375 C 3 -5.15625 3.0625 -4.734375 3.1875 -4.328125 C 3.320312 -3.921875 3.523438 -3.554688 3.796875 -3.234375 C 4.066406 -2.910156 4.378906 -2.660156 4.734375 -2.484375 C 5.097656 -2.316406 5.484375 -2.234375 5.890625 -2.234375 C 6.410156 -2.234375 6.863281 -2.382812 7.25 -2.6875 C 7.632812 -3 7.914062 -3.414062 8.09375 -3.9375 L 5.96875 -3.9375 L 5.96875 -5.96875 L 11.140625 -5.96875 L 11.140625 0 Z M 8.9375 0 "/></g></g></g><g fill="#121435" fill-opacity="1"><g transform="translate(78.573549, 454.500001)"><g><path d="M 0.515625 -1.1875 C 0.515625 -1.382812 0.550781 -1.566406 0.625 -1.734375 C 0.695312 -1.910156 0.796875 -2.066406 0.921875 -2.203125 C 1.054688 -2.335938 1.210938 -2.441406 1.390625 -2.515625 C 1.566406 -2.585938 1.753906 -2.625 1.953125 -2.625 C 2.140625 -2.625 2.320312 -2.585938 2.5 -2.515625 C 2.675781 -2.441406 2.828125 -2.335938 2.953125 -2.203125 C 3.085938 -2.078125 3.191406 -1.925781 3.265625 -1.75 C 3.335938 -1.570312 3.375 -1.382812 3.375 -1.1875 C 3.375 -1 3.332031 -0.816406 3.25 -0.640625 C 3.175781 -0.460938 3.078125 -0.304688 2.953125 -0.171875 C 2.828125 -0.046875 2.675781 0.0507812 2.5 0.125 C 2.332031 0.207031 2.148438 0.25 1.953125 0.25 C 1.742188 0.25 1.550781 0.207031 1.375 0.125 C 1.207031 0.0507812 1.054688 -0.046875 0.921875 -0.171875 C 0.796875 -0.304688 0.695312 -0.457031 0.625 -0.625 C 0.550781 -0.800781 0.515625 -0.988281 0.515625 -1.1875 Z M 0.515625 -1.1875 "/></g></g></g><g fill="#121435" fill-opacity="1"><g transform="translate(83.978631, 454.500001)"><g/></g></g><g fill="#121435" fill-opacity="1"><g transform="translate(88.507355, 454.500001)"><g><path d="M 1.21875 -8.828125 L 2.5625 -8.828125 L 3.015625 -11.171875 L 5.46875 -11.171875 L 5 -8.828125 L 7.40625 -8.828125 L 7.859375 -11.171875 L 10.3125 -11.171875 L 9.859375 -8.828125 L 11.03125 -8.828125 L 10.5625 -6.75 L 9.453125 -6.75 L 8.9375 -4.140625 L 10.328125 -4.140625 L 9.859375 -2.078125 L 8.53125 -2.078125 L 8.140625 0 L 5.671875 0 L 6.078125 -2.078125 L 3.703125 -2.078125 L 3.3125 0 L 0.8125 0 L 1.21875 -2.078125 L 0.0625 -2.078125 L 0.53125 -4.140625 L 1.625 -4.140625 L 2.140625 -6.75 L 0.75 -6.75 Z M 4.109375 -4.140625 L 6.484375 -4.140625 L 7 -6.75 L 4.609375 -6.75 Z M 4.109375 -4.140625 "/></g></g></g><g fill="#121435" fill-opacity="1"><g transform="translate(101.342979, 454.500001)"><g/></g></g><g fill="#121435" fill-opacity="1"><g transform="translate(105.871703, 454.500001)"><g><path d="M 5.890625 0.203125 C 5.378906 0.203125 4.894531 0.132812 4.4375 0 C 3.976562 -0.144531 3.546875 -0.34375 3.140625 -0.59375 C 2.742188 -0.84375 2.378906 -1.140625 2.046875 -1.484375 C 1.722656 -1.835938 1.445312 -2.226562 1.21875 -2.65625 C 0.988281 -3.09375 0.804688 -3.554688 0.671875 -4.046875 C 0.546875 -4.535156 0.484375 -5.050781 0.484375 -5.59375 C 0.484375 -6.125 0.546875 -6.632812 0.671875 -7.125 C 0.804688 -7.625 0.988281 -8.085938 1.21875 -8.515625 C 1.445312 -8.941406 1.722656 -9.332031 2.046875 -9.6875 C 2.378906 -10.039062 2.742188 -10.34375 3.140625 -10.59375 C 3.546875 -10.84375 3.976562 -11.035156 4.4375 -11.171875 C 4.894531 -11.304688 5.378906 -11.375 5.890625 -11.375 C 6.390625 -11.375 6.875 -11.304688 7.34375 -11.171875 C 7.8125 -11.035156 8.242188 -10.84375 8.640625 -10.59375 C 9.035156 -10.34375 9.394531 -10.039062 9.71875 -9.6875 C 10.050781 -9.332031 10.332031 -8.941406 10.5625 -8.515625 C 10.800781 -8.085938 10.984375 -7.625 11.109375 -7.125 C 11.242188 -6.632812 11.3125 -6.125 11.3125 -5.59375 C 11.3125 -5.0625 11.242188 -4.546875 11.109375 -4.046875 C 10.984375 -3.554688 10.800781 -3.09375 10.5625 -2.65625 C 10.332031 -2.226562 10.050781 -1.835938 9.71875 -1.484375 C 9.394531 -1.140625 9.035156 -0.84375 8.640625 -0.59375 C 8.242188 -0.34375 7.8125 -0.144531 7.34375 0 C 6.875 0.132812 6.390625 0.203125 5.890625 0.203125 Z M 5.890625 -2.109375 C 6.316406 -2.109375 6.707031 -2.203125 7.0625 -2.390625 C 7.414062 -2.578125 7.71875 -2.828125 7.96875 -3.140625 C 8.226562 -3.460938 8.425781 -3.832031 8.5625 -4.25 C 8.707031 -4.664062 8.78125 -5.113281 8.78125 -5.59375 C 8.78125 -6.0625 8.707031 -6.503906 8.5625 -6.921875 C 8.425781 -7.347656 8.226562 -7.71875 7.96875 -8.03125 C 7.707031 -8.351562 7.398438 -8.609375 7.046875 -8.796875 C 6.691406 -8.984375 6.304688 -9.078125 5.890625 -9.078125 C 5.460938 -9.078125 5.070312 -8.984375 4.71875 -8.796875 C 4.363281 -8.609375 4.054688 -8.351562 3.796875 -8.03125 C 3.546875 -7.71875 3.347656 -7.347656 3.203125 -6.921875 C 3.066406 -6.503906 3 -6.0625 3 -5.59375 C 3 -5.113281 3.066406 -4.664062 3.203125 -4.25 C 3.347656 -3.832031 3.546875 -3.460938 3.796875 -3.140625 C 4.054688 -2.828125 4.363281 -2.578125 4.71875 -2.390625 C 5.070312 -2.203125 5.460938 -2.109375 5.890625 -2.109375 Z M 5.890625 -2.109375 "/></g></g></g><g fill="#121435" fill-opacity="1"><g transform="translate(119.311198, 454.500001)"><g><path d="M 0.828125 -11.171875 L 9.484375 -11.171875 L 9.484375 -7.359375 L 7.078125 -7.359375 L 7.078125 -8.9375 L 4.4375 -8.9375 L 4.4375 -6.578125 L 6.734375 -6.578125 L 6.734375 -4.4375 L 4.4375 -4.4375 L 4.4375 -2.015625 L 5.609375 -2.015625 L 5.609375 0 L 0.828125 0 L 0.828125 -2.015625 L 1.984375 -2.015625 L 1.984375 -8.9375 L 0.828125 -8.9375 Z M 0.828125 -11.171875 "/></g></g></g><g fill="#121435" fill-opacity="1"><g transform="translate(130.291026, 454.500001)"><g/></g></g><g fill="#121435" fill-opacity="1"><g transform="translate(134.81975, 454.500001)"><g><path d="M 6.203125 -8.03125 C 6.179688 -8.195312 6.117188 -8.351562 6.015625 -8.5 C 5.921875 -8.65625 5.800781 -8.789062 5.65625 -8.90625 C 5.507812 -9.019531 5.335938 -9.109375 5.140625 -9.171875 C 4.953125 -9.234375 4.753906 -9.265625 4.546875 -9.265625 C 4.367188 -9.265625 4.195312 -9.242188 4.03125 -9.203125 C 3.863281 -9.160156 3.71875 -9.097656 3.59375 -9.015625 C 3.476562 -8.941406 3.382812 -8.835938 3.3125 -8.703125 C 3.25 -8.578125 3.21875 -8.425781 3.21875 -8.25 C 3.21875 -8.03125 3.265625 -7.851562 3.359375 -7.71875 C 3.453125 -7.59375 3.570312 -7.488281 3.71875 -7.40625 C 3.875 -7.320312 4.039062 -7.253906 4.21875 -7.203125 C 4.40625 -7.160156 4.582031 -7.109375 4.75 -7.046875 L 6.78125 -6.375 C 7.0625 -6.269531 7.320312 -6.128906 7.5625 -5.953125 C 7.8125 -5.785156 8.023438 -5.578125 8.203125 -5.328125 C 8.378906 -5.085938 8.519531 -4.804688 8.625 -4.484375 C 8.726562 -4.171875 8.78125 -3.8125 8.78125 -3.40625 C 8.78125 -2.875 8.679688 -2.382812 8.484375 -1.9375 C 8.285156 -1.488281 8.003906 -1.101562 7.640625 -0.78125 C 7.285156 -0.457031 6.859375 -0.207031 6.359375 -0.03125 C 5.859375 0.144531 5.300781 0.234375 4.6875 0.234375 C 4.257812 0.234375 3.851562 0.179688 3.46875 0.078125 C 3.09375 -0.015625 2.75 -0.148438 2.4375 -0.328125 C 2.125 -0.515625 1.847656 -0.734375 1.609375 -0.984375 C 1.378906 -1.234375 1.195312 -1.519531 1.0625 -1.84375 L 0.296875 -1.84375 L 0.296875 -4.0625 L 2.96875 -4.0625 L 2.96875 -3.609375 C 2.96875 -3.378906 3.003906 -3.171875 3.078125 -2.984375 C 3.148438 -2.804688 3.253906 -2.644531 3.390625 -2.5 C 3.535156 -2.363281 3.71875 -2.257812 3.9375 -2.1875 C 4.15625 -2.113281 4.40625 -2.078125 4.6875 -2.078125 C 5.132812 -2.078125 5.472656 -2.175781 5.703125 -2.375 C 5.929688 -2.582031 6.046875 -2.867188 6.046875 -3.234375 C 6.046875 -3.421875 6.003906 -3.578125 5.921875 -3.703125 C 5.847656 -3.828125 5.742188 -3.929688 5.609375 -4.015625 C 5.484375 -4.097656 5.34375 -4.164062 5.1875 -4.21875 C 5.03125 -4.28125 4.875 -4.335938 4.71875 -4.390625 L 3.03125 -4.9375 C 2.71875 -5.03125 2.410156 -5.164062 2.109375 -5.34375 C 1.816406 -5.519531 1.554688 -5.738281 1.328125 -6 C 1.097656 -6.269531 0.914062 -6.582031 0.78125 -6.9375 C 0.644531 -7.300781 0.578125 -7.710938 0.578125 -8.171875 C 0.578125 -8.703125 0.675781 -9.171875 0.875 -9.578125 C 1.070312 -9.992188 1.34375 -10.34375 1.6875 -10.625 C 2.039062 -10.914062 2.460938 -11.132812 2.953125 -11.28125 C 3.441406 -11.425781 3.972656 -11.5 4.546875 -11.5 C 5.003906 -11.5 5.425781 -11.445312 5.8125 -11.34375 C 6.207031 -11.238281 6.554688 -11.097656 6.859375 -10.921875 C 7.171875 -10.742188 7.429688 -10.539062 7.640625 -10.3125 C 7.859375 -10.082031 8.023438 -9.847656 8.140625 -9.609375 L 8.875 -9.609375 L 8.875 -7.375 L 6.203125 -7.375 Z M 6.203125 -8.03125 "/></g></g></g><g fill="#121435" fill-opacity="1"><g transform="translate(145.497648, 454.500001)"><g><path d="M 6.578125 -2.015625 L 7.6875 -2.015625 L 7.1875 -3.625 L 3.765625 -3.625 L 3.25 -2.015625 L 4.4375 -2.015625 L 4.4375 0 L 0.203125 0 L 0.203125 -2.015625 L 1.03125 -2.015625 L 4.078125 -11.171875 L 7.03125 -11.171875 L 10.015625 -2.015625 L 10.8125 -2.015625 L 10.8125 0 L 6.578125 0 Z M 4.34375 -5.515625 L 6.59375 -5.515625 L 5.46875 -9.140625 Z M 4.34375 -5.515625 "/></g></g></g><g fill="#121435" fill-opacity="1"><g transform="translate(157.987157, 454.500001)"><g><path d="M 0.828125 -11.171875 L 5.609375 -11.171875 L 5.609375 -9.140625 L 4.4375 -9.140625 L 4.4375 -2.015625 L 6.875 -2.015625 C 6.9375 -2.015625 7 -2.03125 7.0625 -2.0625 C 7.125 -2.101562 7.175781 -2.15625 7.21875 -2.21875 C 7.257812 -2.28125 7.296875 -2.34375 7.328125 -2.40625 C 7.359375 -2.476562 7.375 -2.546875 7.375 -2.609375 L 7.375 -4.109375 L 9.765625 -4.109375 L 9.765625 0 L 0.828125 0 L 0.828125 -2.015625 L 1.984375 -2.015625 L 1.984375 -9.140625 L 0.828125 -9.140625 Z M 0.828125 -11.171875 "/></g></g></g><g fill="#121435" fill-opacity="1"><g transform="translate(169.408841, 454.500001)"><g><path d="M 0.828125 -11.171875 L 9.71875 -11.171875 L 9.71875 -7.359375 L 7.3125 -7.359375 L 7.3125 -8.953125 L 4.453125 -8.953125 L 4.453125 -6.75 L 6.671875 -6.75 L 6.671875 -4.609375 L 4.453125 -4.609375 L 4.453125 -2.015625 L 7.3125 -2.015625 L 7.3125 -4 L 9.71875 -4 L 9.71875 0 L 0.828125 0 L 0.828125 -2.015625 L 2 -2.015625 L 2 -8.953125 L 0.828125 -8.953125 Z M 0.828125 -11.171875 "/></g></g></g><g fill="#121435" fill-opacity="1"><g transform="translate(181.08091, 454.500001)"><g><path d="M 6.203125 -8.03125 C 6.179688 -8.195312 6.117188 -8.351562 6.015625 -8.5 C 5.921875 -8.65625 5.800781 -8.789062 5.65625 -8.90625 C 5.507812 -9.019531 5.335938 -9.109375 5.140625 -9.171875 C 4.953125 -9.234375 4.753906 -9.265625 4.546875 -9.265625 C 4.367188 -9.265625 4.195312 -9.242188 4.03125 -9.203125 C 3.863281 -9.160156 3.71875 -9.097656 3.59375 -9.015625 C 3.476562 -8.941406 3.382812 -8.835938 3.3125 -8.703125 C 3.25 -8.578125 3.21875 -8.425781 3.21875 -8.25 C 3.21875 -8.03125 3.265625 -7.851562 3.359375 -7.71875 C 3.453125 -7.59375 3.570312 -7.488281 3.71875 -7.40625 C 3.875 -7.320312 4.039062 -7.253906 4.21875 -7.203125 C 4.40625 -7.160156 4.582031 -7.109375 4.75 -7.046875 L 6.78125 -6.375 C 7.0625 -6.269531 7.320312 -6.128906 7.5625 -5.953125 C 7.8125 -5.785156 8.023438 -5.578125 8.203125 -5.328125 C 8.378906 -5.085938 8.519531 -4.804688 8.625 -4.484375 C 8.726562 -4.171875 8.78125 -3.8125 8.78125 -3.40625 C 8.78125 -2.875 8.679688 -2.382812 8.484375 -1.9375 C 8.285156 -1.488281 8.003906 -1.101562 7.640625 -0.78125 C 7.285156 -0.457031 6.859375 -0.207031 6.359375 -0.03125 C 5.859375 0.144531 5.300781 0.234375 4.6875 0.234375 C 4.257812 0.234375 3.851562 0.179688 3.46875 0.078125 C 3.09375 -0.015625 2.75 -0.148438 2.4375 -0.328125 C 2.125 -0.515625 1.847656 -0.734375 1.609375 -0.984375 C 1.378906 -1.234375 1.195312 -1.519531 1.0625 -1.84375 L 0.296875 -1.84375 L 0.296875 -4.0625 L 2.96875 -4.0625 L 2.96875 -3.609375 C 2.96875 -3.378906 3.003906 -3.171875 3.078125 -2.984375 C 3.148438 -2.804688 3.253906 -2.644531 3.390625 -2.5 C 3.535156 -2.363281 3.71875 -2.257812 3.9375 -2.1875 C 4.15625 -2.113281 4.40625 -2.078125 4.6875 -2.078125 C 5.132812 -2.078125 5.472656 -2.175781 5.703125 -2.375 C 5.929688 -2.582031 6.046875 -2.867188 6.046875 -3.234375 C 6.046875 -3.421875 6.003906 -3.578125 5.921875 -3.703125 C 5.847656 -3.828125 5.742188 -3.929688 5.609375 -4.015625 C 5.484375 -4.097656 5.34375 -4.164062 5.1875 -4.21875 C 5.03125 -4.28125 4.875 -4.335938 4.71875 -4.390625 L 3.03125 -4.9375 C 2.71875 -5.03125 2.410156 -5.164062 2.109375 -5.34375 C 1.816406 -5.519531 1.554688 -5.738281 1.328125 -6 C 1.097656 -6.269531 0.914062 -6.582031 0.78125 -6.9375 C 0.644531 -7.300781 0.578125 -7.710938 0.578125 -8.171875 C 0.578125 -8.703125 0.675781 -9.171875 0.875 -9.578125 C 1.070312 -9.992188 1.34375 -10.34375 1.6875 -10.625 C 2.039062 -10.914062 2.460938 -11.132812 2.953125 -11.28125 C 3.441406 -11.425781 3.972656 -11.5 4.546875 -11.5 C 5.003906 -11.5 5.425781 -11.445312 5.8125 -11.34375 C 6.207031 -11.238281 6.554688 -11.097656 6.859375 -10.921875 C 7.171875 -10.742188 7.429688 -10.539062 7.640625 -10.3125 C 7.859375 -10.082031 8.023438 -9.847656 8.140625 -9.609375 L 8.875 -9.609375 L 8.875 -7.375 L 6.203125 -7.375 Z M 6.203125 -8.03125 "/></g></g></g><g fill="#121435" fill-opacity="1"><g transform="translate(191.758808, 454.500001)"><g/></g></g><g fill="#121435" fill-opacity="1"><g transform="translate(196.287532, 454.500001)"><g><path d="M 0.828125 -11.171875 L 5.984375 -11.171875 C 6.566406 -11.171875 7.097656 -11.082031 7.578125 -10.90625 C 8.054688 -10.726562 8.46875 -10.484375 8.8125 -10.171875 C 9.164062 -9.867188 9.441406 -9.519531 9.640625 -9.125 C 9.835938 -8.726562 9.9375 -8.3125 9.9375 -7.875 C 9.9375 -7.351562 9.859375 -6.863281 9.703125 -6.40625 C 9.546875 -5.957031 9.304688 -5.566406 8.984375 -5.234375 C 8.660156 -4.898438 8.25 -4.632812 7.75 -4.4375 C 7.257812 -4.25 6.671875 -4.15625 5.984375 -4.15625 L 4.4375 -4.15625 L 4.4375 -2.015625 L 5.46875 -2.015625 L 5.46875 0 L 0.828125 0 L 0.828125 -2.015625 L 1.984375 -2.015625 L 1.984375 -9.140625 L 0.828125 -9.140625 Z M 4.4375 -9.140625 L 4.4375 -6.140625 L 5.453125 -6.140625 C 6.003906 -6.140625 6.445312 -6.257812 6.78125 -6.5 C 7.113281 -6.738281 7.28125 -7.113281 7.28125 -7.625 C 7.28125 -8.09375 7.125 -8.460938 6.8125 -8.734375 C 6.5 -9.003906 6.046875 -9.140625 5.453125 -9.140625 Z M 4.4375 -9.140625 "/></g></g></g><g fill="#121435" fill-opacity="1"><g transform="translate(208.106887, 454.500001)"><g><path d="M 0.828125 -11.171875 L 9.71875 -11.171875 L 9.71875 -7.359375 L 7.3125 -7.359375 L 7.3125 -8.953125 L 4.453125 -8.953125 L 4.453125 -6.75 L 6.671875 -6.75 L 6.671875 -4.609375 L 4.453125 -4.609375 L 4.453125 -2.015625 L 7.3125 -2.015625 L 7.3125 -4 L 9.71875 -4 L 9.71875 0 L 0.828125 0 L 0.828125 -2.015625 L 2 -2.015625 L 2 -8.953125 L 0.828125 -8.953125 Z M 0.828125 -11.171875 "/></g></g></g><g fill="#121435" fill-opacity="1"><g transform="translate(219.778956, 454.500001)"><g><path d="M 0.828125 -11.171875 L 6.75 -11.171875 C 7.320312 -11.171875 7.832031 -11.082031 8.28125 -10.90625 C 8.738281 -10.738281 9.117188 -10.507812 9.421875 -10.21875 C 9.734375 -9.9375 9.972656 -9.601562 10.140625 -9.21875 C 10.304688 -8.84375 10.390625 -8.445312 10.390625 -8.03125 C 10.390625 -7.65625 10.347656 -7.320312 10.265625 -7.03125 C 10.179688 -6.75 10.0625 -6.5 9.90625 -6.28125 C 9.75 -6.0625 9.554688 -5.863281 9.328125 -5.6875 C 9.109375 -5.519531 8.851562 -5.367188 8.5625 -5.234375 C 8.8125 -5.109375 9.03125 -4.910156 9.21875 -4.640625 C 9.414062 -4.378906 9.5625 -4.039062 9.65625 -3.625 L 10.03125 -2.171875 L 10.953125 -2.171875 L 10.96875 0 L 7.734375 0 L 7.28125 -2.65625 C 7.238281 -2.96875 7.171875 -3.238281 7.078125 -3.46875 C 6.992188 -3.695312 6.875 -3.882812 6.71875 -4.03125 C 6.570312 -4.175781 6.390625 -4.28125 6.171875 -4.34375 C 5.953125 -4.414062 5.691406 -4.453125 5.390625 -4.453125 L 4.4375 -4.453125 L 4.4375 -2.015625 L 5.46875 -2.015625 L 5.46875 0 L 0.828125 0 L 0.828125 -2.015625 L 1.984375 -2.015625 L 1.984375 -9.140625 L 0.828125 -9.140625 Z M 4.4375 -9.140625 L 4.4375 -6.4375 L 5.90625 -6.4375 C 6.1875 -6.4375 6.4375 -6.460938 6.65625 -6.515625 C 6.882812 -6.566406 7.078125 -6.644531 7.234375 -6.75 C 7.390625 -6.863281 7.507812 -7.003906 7.59375 -7.171875 C 7.6875 -7.335938 7.734375 -7.539062 7.734375 -7.78125 C 7.734375 -8.207031 7.578125 -8.539062 7.265625 -8.78125 C 6.953125 -9.019531 6.5 -9.140625 5.90625 -9.140625 Z M 4.4375 -9.140625 "/></g></g></g><g fill="#121435" fill-opacity="1"><g transform="translate(39.749998, 475.5)"><g><path d="M 0.34375 -11.171875 L 5.125 -11.171875 L 5.125 -9.140625 L 4.1875 -9.140625 L 5.6875 -6.578125 L 7.28125 -9.140625 L 6.203125 -9.140625 L 6.203125 -11.171875 L 10.984375 -11.171875 L 10.984375 -9.140625 L 10.15625 -9.140625 L 6.84375 -4.640625 L 6.84375 -2.015625 L 8.203125 -2.015625 L 8.203125 0 L 3.21875 0 L 3.21875 -2.015625 L 4.453125 -2.015625 L 4.453125 -4.671875 L 1.328125 -9.140625 L 0.34375 -9.140625 Z M 0.34375 -11.171875 "/></g></g></g><g fill="#121435" fill-opacity="1"><g transform="translate(52.570897, 475.5)"><g><path d="M 0.828125 -11.171875 L 9.71875 -11.171875 L 9.71875 -7.359375 L 7.3125 -7.359375 L 7.3125 -8.953125 L 4.453125 -8.953125 L 4.453125 -6.75 L 6.671875 -6.75 L 6.671875 -4.609375 L 4.453125 -4.609375 L 4.453125 -2.015625 L 7.3125 -2.015625 L 7.3125 -4 L 9.71875 -4 L 9.71875 0 L 0.828125 0 L 0.828125 -2.015625 L 2 -2.015625 L 2 -8.953125 L 0.828125 -8.953125 Z M 0.828125 -11.171875 "/></g></g></g><g fill="#121435" fill-opacity="1"><g transform="translate(64.242969, 475.5)"><g><path d="M 6.578125 -2.015625 L 7.6875 -2.015625 L 7.1875 -3.625 L 3.765625 -3.625 L 3.25 -2.015625 L 4.4375 -2.015625 L 4.4375 0 L 0.203125 0 L 0.203125 -2.015625 L 1.03125 -2.015625 L 4.078125 -11.171875 L 7.03125 -11.171875 L 10.015625 -2.015625 L 10.8125 -2.015625 L 10.8125 0 L 6.578125 0 Z M 4.34375 -5.515625 L 6.59375 -5.515625 L 5.46875 -9.140625 Z M 4.34375 -5.515625 "/></g></g></g><g fill="#121435" fill-opacity="1"><g transform="translate(76.732481, 475.5)"><g><path d="M 0.828125 -11.171875 L 6.75 -11.171875 C 7.320312 -11.171875 7.832031 -11.082031 8.28125 -10.90625 C 8.738281 -10.738281 9.117188 -10.507812 9.421875 -10.21875 C 9.734375 -9.9375 9.972656 -9.601562 10.140625 -9.21875 C 10.304688 -8.84375 10.390625 -8.445312 10.390625 -8.03125 C 10.390625 -7.65625 10.347656 -7.320312 10.265625 -7.03125 C 10.179688 -6.75 10.0625 -6.5 9.90625 -6.28125 C 9.75 -6.0625 9.554688 -5.863281 9.328125 -5.6875 C 9.109375 -5.519531 8.851562 -5.367188 8.5625 -5.234375 C 8.8125 -5.109375 9.03125 -4.910156 9.21875 -4.640625 C 9.414062 -4.378906 9.5625 -4.039062 9.65625 -3.625 L 10.03125 -2.171875 L 10.953125 -2.171875 L 10.96875 0 L 7.734375 0 L 7.28125 -2.65625 C 7.238281 -2.96875 7.171875 -3.238281 7.078125 -3.46875 C 6.992188 -3.695312 6.875 -3.882812 6.71875 -4.03125 C 6.570312 -4.175781 6.390625 -4.28125 6.171875 -4.34375 C 5.953125 -4.414062 5.691406 -4.453125 5.390625 -4.453125 L 4.4375 -4.453125 L 4.4375 -2.015625 L 5.46875 -2.015625 L 5.46875 0 L 0.828125 0 L 0.828125 -2.015625 L 1.984375 -2.015625 L 1.984375 -9.140625 L 0.828125 -9.140625 Z M 4.4375 -9.140625 L 4.4375 -6.4375 L 5.90625 -6.4375 C 6.1875 -6.4375 6.4375 -6.460938 6.65625 -6.515625 C 6.882812 -6.566406 7.078125 -6.644531 7.234375 -6.75 C 7.390625 -6.863281 7.507812 -7.003906 7.59375 -7.171875 C 7.6875 -7.335938 7.734375 -7.539062 7.734375 -7.78125 C 7.734375 -8.207031 7.578125 -8.539062 7.265625 -8.78125 C 6.953125 -9.019531 6.5 -9.140625 5.90625 -9.140625 Z M 4.4375 -9.140625 "/></g></g></g></svg>