<svg xmlns="http://www.w3.org/2000/svg" xmlns:xlink="http://www.w3.org/1999/xlink" width="445" zoomAndPan="magnify" viewBox="0 0 333.75 419.999985" height="560" preserveAspectRatio="xMidYMid meet" version="1.0"><defs><clipPath id="9f7e8b8de8"><path d="M 80.28125 130 L 253.53125 130 L 253.53125 180 L 80.28125 180 Z M 80.28125 130 " clip-rule="nonzero"/></clipPath><clipPath id="25cace3e9f"><path d="M 80.28125 169 L 253.53125 169 L 253.53125 193 L 80.28125 193 Z M 80.28125 169 " clip-rule="nonzero"/></clipPath></defs><path fill="#000000" d="M 251.675781 231.863281 C 251.964844 231.582031 252.21875 231.273438 252.441406 230.9375 C 252.664062 230.601562 252.847656 230.246094 252.992188 229.871094 C 253.136719 229.496094 253.238281 229.109375 253.300781 228.710938 C 253.363281 228.3125 253.378906 227.914062 253.355469 227.511719 C 253.328125 227.109375 253.257812 226.71875 253.148438 226.328125 C 253.039062 225.941406 252.886719 225.574219 252.695312 225.21875 C 252.503906 224.863281 252.277344 224.535156 252.011719 224.230469 C 251.75 223.925781 251.457031 223.652344 251.136719 223.410156 C 245.054688 218.988281 238.660156 215.070312 231.960938 211.65625 C 225.257812 208.242188 218.328125 205.378906 211.175781 203.058594 C 204.023438 200.738281 196.730469 198.992188 189.300781 197.824219 C 181.871094 196.65625 174.394531 196.078125 166.875 196.089844 C 135.394531 196.089844 106.273438 206.21875 82.613281 223.410156 C 82.292969 223.652344 82 223.925781 81.734375 224.230469 C 81.472656 224.535156 81.246094 224.863281 81.050781 225.214844 C 80.859375 225.570312 80.707031 225.941406 80.597656 226.328125 C 80.484375 226.714844 80.417969 227.109375 80.390625 227.511719 C 80.363281 227.910156 80.382812 228.3125 80.441406 228.710938 C 80.503906 229.109375 80.605469 229.496094 80.75 229.871094 C 80.894531 230.246094 81.078125 230.601562 81.296875 230.9375 C 81.519531 231.273438 81.773438 231.582031 82.0625 231.863281 C 82.566406 232.359375 83.136719 232.75 83.777344 233.042969 C 84.417969 233.332031 85.089844 233.503906 85.792969 233.558594 C 86.496094 233.609375 87.1875 233.539062 87.863281 233.347656 C 88.539062 233.15625 89.164062 232.851562 89.734375 232.4375 C 95.3125 228.410156 101.171875 224.84375 107.3125 221.738281 C 113.449219 218.632812 119.792969 216.023438 126.339844 213.914062 C 132.890625 211.800781 139.5625 210.214844 146.359375 209.152344 C 153.15625 208.089844 159.996094 207.5625 166.875 207.574219 C 195.667969 207.574219 222.308594 216.785156 244.003906 232.425781 C 246.359375 234.125 249.632812 233.917969 251.675781 231.863281 Z M 251.675781 231.863281 " fill-opacity="1" fill-rule="nonzero"/><path fill="#000000" d="M 226.925781 256.625 C 227.222656 256.339844 227.484375 256.023438 227.710938 255.679688 C 227.933594 255.335938 228.121094 254.972656 228.265625 254.585938 C 228.410156 254.203125 228.511719 253.804688 228.566406 253.398438 C 228.621094 252.992188 228.632812 252.582031 228.597656 252.175781 C 228.5625 251.765625 228.484375 251.363281 228.359375 250.972656 C 228.238281 250.578125 228.070312 250.207031 227.863281 249.851562 C 227.65625 249.496094 227.414062 249.167969 227.132812 248.867188 C 226.851562 248.566406 226.542969 248.300781 226.203125 248.066406 C 221.8125 245.214844 217.238281 242.695312 212.480469 240.503906 C 207.726562 238.3125 202.835938 236.472656 197.8125 234.992188 C 192.792969 233.507812 187.6875 232.394531 182.503906 231.648438 C 177.320312 230.902344 172.113281 230.535156 166.875 230.542969 C 144.996094 230.542969 124.613281 236.972656 107.546875 248.066406 C 107.207031 248.296875 106.894531 248.5625 106.613281 248.863281 C 106.328125 249.164062 106.085938 249.492188 105.875 249.847656 C 105.667969 250.203125 105.5 250.574219 105.375 250.96875 C 105.25 251.359375 105.171875 251.761719 105.136719 252.171875 C 105.101562 252.582031 105.113281 252.992188 105.171875 253.398438 C 105.226562 253.808594 105.328125 254.203125 105.476562 254.589844 C 105.621094 254.976562 105.808594 255.339844 106.035156 255.683594 C 106.261719 256.027344 106.523438 256.339844 106.824219 256.625 C 107.3125 257.101562 107.867188 257.484375 108.488281 257.773438 C 109.105469 258.0625 109.757812 258.242188 110.4375 258.308594 C 111.117188 258.375 111.789062 258.328125 112.453125 258.167969 C 113.117188 258.007812 113.738281 257.742188 114.3125 257.371094 C 118.214844 254.871094 122.273438 252.664062 126.492188 250.742188 C 130.707031 248.824219 135.042969 247.21875 139.488281 245.917969 C 143.9375 244.621094 148.457031 243.644531 153.042969 242.992188 C 157.628906 242.339844 162.242188 242.019531 166.875 242.027344 C 171.507812 242.019531 176.117188 242.34375 180.703125 242.996094 C 185.289062 243.648438 189.808594 244.621094 194.253906 245.921875 C 198.703125 247.21875 203.035156 248.828125 207.25 250.746094 C 211.46875 252.664062 215.527344 254.871094 219.425781 257.371094 C 221.792969 258.886719 224.941406 258.609375 226.925781 256.625 Z M 201.855469 281.695312 C 204.453125 279.097656 203.980469 274.746094 200.707031 273.082031 C 195.46875 270.414062 189.988281 268.398438 184.269531 267.03125 C 178.554688 265.664062 172.753906 264.988281 166.875 264.996094 C 154.703125 264.996094 143.195312 267.914062 133.042969 273.082031 C 129.769531 274.746094 129.296875 279.097656 131.894531 281.695312 L 132.066406 281.867188 C 133.902344 283.703125 136.738281 284.046875 139.082031 282.898438 C 143.40625 280.78125 147.917969 279.179688 152.609375 278.09375 C 157.304688 277.011719 162.058594 276.472656 166.875 276.480469 C 176.84375 276.480469 186.285156 278.789062 194.667969 282.910156 C 197 284.058594 199.835938 283.714844 201.671875 281.867188 Z M 179.046875 304.503906 C 181.300781 302.25 181.324219 298.53125 178.589844 296.921875 C 176.816406 295.867188 174.9375 295.066406 172.949219 294.523438 C 170.960938 293.976562 168.9375 293.703125 166.875 293.707031 C 164.8125 293.703125 162.789062 293.976562 160.800781 294.523438 C 158.8125 295.066406 156.933594 295.867188 155.160156 296.921875 C 152.425781 298.53125 152.449219 302.25 154.703125 304.503906 L 162.808594 312.609375 C 163.074219 312.875 163.367188 313.113281 163.679688 313.324219 C 163.992188 313.535156 164.324219 313.710938 164.671875 313.855469 C 165.019531 314 165.378906 314.109375 165.75 314.179688 C 166.117188 314.253906 166.492188 314.292969 166.871094 314.292969 C 167.246094 314.292969 167.621094 314.253906 167.988281 314.179688 C 168.359375 314.109375 168.71875 314 169.066406 313.855469 C 169.414062 313.710938 169.746094 313.535156 170.058594 313.324219 C 170.371094 313.113281 170.664062 312.875 170.929688 312.609375 L 179.046875 304.492188 Z M 179.046875 304.503906 " fill-opacity="1" fill-rule="nonzero"/><g clip-path="url(#9f7e8b8de8)"><path fill="#000000" d="M 225.96875 135.363281 C 210.132812 132.351562 189.152344 130.683594 166.921875 130.683594 C 144.695312 130.683594 123.667969 132.351562 107.875 135.363281 C 89.027344 138.972656 80.273438 143.835938 80.273438 150.691406 L 80.273438 159.210938 C 80.273438 166.066406 89.027344 170.929688 107.875 174.542969 C 123.667969 177.554688 144.648438 179.21875 166.921875 179.21875 C 189.199219 179.21875 210.132812 177.554688 225.96875 174.542969 C 244.773438 170.929688 253.570312 166.066406 253.570312 159.210938 L 253.570312 150.691406 C 253.523438 143.835938 244.773438 138.972656 225.96875 135.363281 Z M 221.617188 151.753906 C 227.542969 152.773438 232.082031 153.886719 235.554688 154.949219 C 232.128906 156.015625 227.589844 157.128906 221.617188 158.144531 C 206.65625 160.738281 187.253906 162.175781 166.921875 162.175781 C 146.59375 162.175781 127.140625 160.738281 112.183594 158.144531 C 106.253906 157.128906 101.71875 156.015625 98.242188 154.949219 C 101.671875 153.886719 106.210938 152.773438 112.183594 151.753906 C 127.140625 149.160156 146.59375 147.726562 166.921875 147.726562 C 187.253906 147.726562 206.65625 149.160156 221.617188 151.753906 Z M 221.617188 151.753906 " fill-opacity="1" fill-rule="nonzero"/></g><g clip-path="url(#25cace3e9f)"><path fill="#000000" d="M 253.53125 169.722656 L 253.53125 172.875 C 253.53125 179.726562 244.777344 184.589844 225.929688 188.203125 C 210.136719 191.214844 189.160156 192.878906 166.882812 192.878906 C 144.605469 192.878906 123.675781 191.214844 107.835938 188.203125 C 89.035156 184.589844 80.28125 179.726562 80.28125 172.875 L 80.28125 169.722656 C 80.28125 176.578125 89.035156 181.441406 107.882812 185.054688 C 123.71875 188.066406 144.652344 189.730469 166.929688 189.730469 C 189.203125 189.730469 210.136719 188.0625 225.976562 185.054688 C 244.777344 181.441406 253.53125 176.578125 253.53125 169.722656 Z M 253.53125 169.722656 " fill-opacity="1" fill-rule="nonzero"/></g></svg>