<svg xmlns="http://www.w3.org/2000/svg" xmlns:xlink="http://www.w3.org/1999/xlink" width="800" zoomAndPan="magnify" viewBox="0 0 600 449.999984" height="600" preserveAspectRatio="xMidYMid meet" version="1.0"><defs><clipPath id="7a1add93f4"><path d="M 215.179688 104 L 384.679688 104 L 384.679688 152 L 215.179688 152 Z M 215.179688 104 " clip-rule="nonzero"/></clipPath><clipPath id="9b489d9299"><path d="M 215.179688 142 L 384.679688 142 L 384.679688 166 L 215.179688 166 Z M 215.179688 142 " clip-rule="nonzero"/></clipPath></defs><path fill="#000000" d="M 383.070312 203.792969 C 383.351562 203.519531 383.601562 203.21875 383.820312 202.886719 C 384.039062 202.558594 384.21875 202.210938 384.359375 201.84375 C 384.5 201.476562 384.601562 201.097656 384.660156 200.707031 C 384.722656 200.316406 384.738281 199.925781 384.714844 199.53125 C 384.6875 199.136719 384.621094 198.753906 384.511719 198.375 C 384.402344 197.996094 384.253906 197.632812 384.066406 197.285156 C 383.878906 196.9375 383.660156 196.613281 383.402344 196.316406 C 383.144531 196.019531 382.855469 195.75 382.542969 195.515625 C 376.582031 191.179688 370.320312 187.34375 363.753906 184 C 357.191406 180.65625 350.40625 177.847656 343.398438 175.574219 C 336.386719 173.304688 329.246094 171.59375 321.96875 170.449219 C 314.691406 169.304688 307.367188 168.738281 300 168.75 C 269.164062 168.75 240.632812 178.671875 217.457031 195.515625 C 217.144531 195.75 216.855469 196.015625 216.597656 196.316406 C 216.339844 196.613281 216.117188 196.9375 215.929688 197.28125 C 215.742188 197.628906 215.59375 197.992188 215.484375 198.371094 C 215.375 198.75 215.304688 199.136719 215.28125 199.527344 C 215.253906 199.921875 215.269531 200.3125 215.332031 200.703125 C 215.390625 201.09375 215.492188 201.472656 215.632812 201.839844 C 215.773438 202.210938 215.953125 202.558594 216.167969 202.886719 C 216.386719 203.214844 216.636719 203.519531 216.917969 203.792969 C 217.410156 204.277344 217.96875 204.664062 218.597656 204.949219 C 219.226562 205.234375 219.886719 205.402344 220.574219 205.453125 C 221.261719 205.503906 221.9375 205.4375 222.601562 205.246094 C 223.265625 205.058594 223.875 204.761719 224.433594 204.355469 C 229.898438 200.414062 235.636719 196.917969 241.652344 193.875 C 247.664062 190.832031 253.878906 188.277344 260.292969 186.210938 C 266.707031 184.140625 273.246094 182.585938 279.902344 181.546875 C 286.5625 180.503906 293.261719 179.988281 300 180 C 328.203125 180 354.304688 189.023438 375.554688 204.34375 C 377.859375 206.011719 381.066406 205.808594 383.070312 203.792969 Z M 383.070312 203.792969 " fill-opacity="1" fill-rule="nonzero"/><path fill="#000000" d="M 358.828125 228.046875 C 359.117188 227.769531 359.371094 227.460938 359.59375 227.125 C 359.8125 226.789062 359.996094 226.429688 360.136719 226.054688 C 360.277344 225.675781 360.378906 225.289062 360.433594 224.890625 C 360.488281 224.492188 360.5 224.089844 360.464844 223.691406 C 360.429688 223.289062 360.351562 222.894531 360.230469 222.511719 C 360.109375 222.128906 359.949219 221.761719 359.746094 221.414062 C 359.542969 221.066406 359.304688 220.746094 359.027344 220.449219 C 358.753906 220.15625 358.449219 219.894531 358.117188 219.667969 C 353.816406 216.871094 349.335938 214.402344 344.675781 212.257812 C 340.015625 210.109375 335.226562 208.3125 330.308594 206.855469 C 325.386719 205.402344 320.390625 204.3125 315.3125 203.582031 C 310.234375 202.851562 305.128906 202.492188 300 202.5 C 278.570312 202.5 258.601562 208.800781 241.882812 219.667969 C 241.546875 219.894531 241.242188 220.152344 240.964844 220.445312 C 240.691406 220.742188 240.449219 221.0625 240.246094 221.410156 C 240.042969 221.757812 239.878906 222.125 239.757812 222.507812 C 239.632812 222.894531 239.554688 223.285156 239.523438 223.6875 C 239.488281 224.089844 239.5 224.492188 239.554688 224.890625 C 239.609375 225.289062 239.710938 225.679688 239.851562 226.054688 C 239.996094 226.433594 240.179688 226.789062 240.402344 227.125 C 240.625 227.460938 240.882812 227.769531 241.171875 228.046875 C 241.652344 228.515625 242.195312 228.890625 242.804688 229.175781 C 243.410156 229.457031 244.046875 229.632812 244.714844 229.699219 C 245.378906 229.765625 246.039062 229.71875 246.6875 229.5625 C 247.339844 229.40625 247.945312 229.144531 248.507812 228.78125 C 252.332031 226.332031 256.308594 224.167969 260.441406 222.289062 C 264.570312 220.410156 268.816406 218.835938 273.171875 217.5625 C 277.53125 216.289062 281.957031 215.335938 286.449219 214.695312 C 290.945312 214.058594 295.460938 213.742188 300 213.75 C 304.539062 213.742188 309.054688 214.058594 313.546875 214.699219 C 318.039062 215.335938 322.464844 216.292969 326.820312 217.5625 C 331.175781 218.835938 335.421875 220.410156 339.550781 222.289062 C 343.683594 224.167969 347.660156 226.332031 351.480469 228.78125 C 353.796875 230.265625 356.878906 229.996094 358.828125 228.046875 Z M 334.265625 252.609375 C 336.808594 250.066406 336.347656 245.800781 333.140625 244.171875 C 328.007812 241.558594 322.640625 239.582031 317.039062 238.242188 C 311.441406 236.90625 305.757812 236.242188 300 236.25 C 288.074219 236.25 276.800781 239.109375 266.859375 244.171875 C 263.652344 245.800781 263.191406 250.066406 265.734375 252.609375 L 265.902344 252.777344 C 267.703125 254.578125 270.480469 254.914062 272.773438 253.789062 C 277.011719 251.710938 281.429688 250.144531 286.027344 249.082031 C 290.625 248.019531 295.28125 247.492188 300 247.5 C 309.765625 247.5 319.011719 249.761719 327.226562 253.800781 C 329.507812 254.925781 332.289062 254.585938 334.085938 252.777344 Z M 311.925781 274.949219 C 314.128906 272.746094 314.152344 269.101562 311.476562 267.523438 C 309.738281 266.492188 307.898438 265.707031 305.949219 265.171875 C 304.003906 264.640625 302.019531 264.371094 300 264.375 C 297.980469 264.371094 295.996094 264.640625 294.050781 265.171875 C 292.101562 265.707031 290.261719 266.492188 288.523438 267.523438 C 285.847656 269.101562 285.871094 272.746094 288.074219 274.949219 L 296.015625 282.890625 C 296.277344 283.152344 296.5625 283.386719 296.871094 283.589844 C 297.175781 283.796875 297.5 283.96875 297.84375 284.113281 C 298.183594 284.253906 298.535156 284.359375 298.898438 284.429688 C 299.257812 284.503906 299.625 284.539062 299.996094 284.539062 C 300.363281 284.539062 300.730469 284.503906 301.089844 284.429688 C 301.453125 284.359375 301.804688 284.253906 302.148438 284.113281 C 302.488281 283.96875 302.8125 283.796875 303.117188 283.589844 C 303.425781 283.386719 303.710938 283.152344 303.972656 282.890625 L 311.925781 274.9375 Z M 311.925781 274.949219 " fill-opacity="1" fill-rule="nonzero"/><g clip-path="url(#7a1add93f4)"><path fill="#000000" d="M 357.714844 109.082031 C 342.21875 106.136719 321.695312 104.503906 299.945312 104.503906 C 278.199219 104.503906 257.628906 106.136719 242.179688 109.082031 C 223.738281 112.613281 215.175781 117.371094 215.175781 124.078125 L 215.175781 132.414062 C 215.175781 139.121094 223.738281 143.878906 242.179688 147.414062 C 257.628906 150.359375 278.152344 151.988281 299.945312 151.988281 C 321.738281 151.988281 342.21875 150.359375 357.714844 147.414062 C 376.109375 143.878906 384.71875 139.121094 384.71875 132.414062 L 384.71875 124.078125 C 384.675781 117.375 376.109375 112.617188 357.714844 109.082031 Z M 353.457031 125.121094 C 359.253906 126.117188 363.695312 127.203125 367.09375 128.246094 C 363.742188 129.289062 359.300781 130.375 353.457031 131.371094 C 338.820312 133.910156 319.835938 135.3125 299.945312 135.3125 C 280.054688 135.3125 261.027344 133.910156 246.390625 131.371094 C 240.589844 130.375 236.152344 129.289062 232.753906 128.246094 C 236.105469 127.203125 240.546875 126.117188 246.390625 125.121094 C 261.027344 122.582031 280.054688 121.179688 299.945312 121.179688 C 319.835938 121.175781 338.820312 122.582031 353.457031 125.121094 Z M 353.457031 125.121094 " fill-opacity="1" fill-rule="nonzero"/></g><g clip-path="url(#9b489d9299)"><path fill="#000000" d="M 384.679688 142.699219 L 384.679688 145.78125 C 384.679688 152.484375 376.117188 157.242188 357.675781 160.777344 C 342.226562 163.722656 321.699219 165.355469 299.90625 165.355469 C 278.113281 165.355469 257.632812 163.722656 242.136719 160.777344 C 223.742188 157.246094 215.179688 152.488281 215.179688 145.78125 L 215.179688 142.699219 C 215.179688 149.40625 223.742188 154.164062 242.183594 157.699219 C 257.679688 160.644531 278.160156 162.273438 299.953125 162.273438 C 321.746094 162.273438 342.226562 160.644531 357.71875 157.699219 C 376.117188 154.164062 384.679688 149.40625 384.679688 142.699219 Z M 384.679688 142.699219 " fill-opacity="1" fill-rule="nonzero"/></g></svg>